<?xml version="1.0" encoding="UTF-8"?>
<svg version="1.1" xmlns="http://www.w3.org/2000/svg" width="376" height="343">
<path d="M0 0 C5.19174071 0.00892571 10.38347972 0.0070202 15.57522655 0.00663924 C24.29371228 0.00757035 33.01216282 0.01617461 41.73063731 0.0299089 C51.7223052 0.04559361 61.71393459 0.05090777 71.70561391 0.05017334 C82.45961783 0.04949038 93.21360748 0.0564755 103.96760702 0.06561995 C107.01256548 0.067722 110.05752154 0.06845708 113.10248065 0.06885886 C131.51433818 0.07369178 149.92370571 0.09504896 168.32927012 0.62121749 C170.10608086 0.6665309 170.10608086 0.6665309 171.91878676 0.71275973 C194.29606029 1.46839824 216.00588833 5.04290805 232.39396739 21.41150069 C245.8288455 35.86599009 251.19070847 53.7124221 251.15268016 73.14515853 C251.15494572 74.00712354 251.15721127 74.86908855 251.15954548 75.75717372 C251.16584314 78.62707067 251.16505884 81.49691989 251.16423106 84.36682296 C251.16722527 86.43230921 251.17062841 88.4977949 251.17440867 90.56327987 C251.18322811 96.16281127 251.18558598 101.76232737 251.18622446 107.36186504 C251.18693635 110.86565997 251.18907335 114.36945104 251.19172168 117.873245 C251.20096966 130.11264328 251.20505742 142.35203068 251.20427012 154.59143233 C251.2036701 165.97365069 251.21420855 177.35582153 251.23001379 188.73802787 C251.24312328 198.5302769 251.24845256 208.32251048 251.24781471 218.11476821 C251.24756065 223.95411415 251.25036106 229.79341789 251.26099277 235.63275504 C251.27073075 241.13131145 251.27071411 246.62978582 251.26347613 252.12834525 C251.26243721 254.13613673 251.26475158 256.14393347 251.27083659 258.15171599 C251.33817325 281.92737343 249.5499964 304.86400361 232.28459239 322.95837569 C231.53693614 323.70989913 230.78927989 324.46142257 230.01896739 325.23571944 C229.41568614 325.87380538 228.81240489 326.51189132 228.19084239 327.16931319 C203.77915462 350.99724321 157.98265084 343.38871171 126.97606683 343.37004495 C121.36077874 343.36747715 115.74549213 343.36987119 110.13020396 343.37143111 C100.70135776 343.37324099 91.27251943 343.37087866 81.84367442 343.36609054 C71.02606307 343.36065973 60.20847061 343.36240679 49.39085972 343.36791694 C40.02267919 343.3724934 30.65450425 343.37307641 21.28632295 343.37047827 C15.72676647 343.36893896 10.16721879 343.36865563 4.60766292 343.37201476 C-34.89779043 343.39242575 -34.89779043 343.39242575 -53.39655995 342.82898116 C-54.57597976 342.79549638 -55.75539956 342.76201159 -56.97055936 342.72751212 C-65.44246512 342.41966805 -73.05114575 341.42725415 -80.98103261 338.23571944 C-82.14892323 337.77423507 -83.31681386 337.31275069 -84.52009511 336.83728194 C-101.45322642 329.27455445 -112.26174697 316.12253307 -118.98493886 299.01696944 C-122.40015141 289.48116028 -123.13045518 279.92088171 -123.12820363 269.86435103 C-123.13188032 268.96477963 -123.13555701 268.06520822 -123.13934511 267.13837707 C-123.15029034 264.1472183 -123.15421006 261.15609437 -123.15803456 258.16491866 C-123.16430606 256.0106156 -123.17095346 253.85631361 -123.17794728 251.70201278 C-123.19890565 244.64815171 -123.20934089 237.59429063 -123.21931386 230.54040694 C-123.22336427 228.10483071 -123.22748128 225.66925459 -123.23166394 223.23367858 C-123.25069629 211.78983079 -123.26493231 200.34598937 -123.27327591 188.90212882 C-123.28304599 175.72217516 -123.30936796 162.54238954 -123.3497768 149.36249506 C-123.3799943 139.15409429 -123.39475006 128.94574155 -123.39805692 118.73729694 C-123.40040059 112.6497492 -123.40927242 106.56238138 -123.4345181 100.47488189 C-123.45790305 94.74397179 -123.46199022 89.0133588 -123.45175672 83.28241324 C-123.45126381 81.18914652 -123.4575112 79.09586463 -123.47131276 77.00264335 C-123.5971723 56.7684014 -120.40077713 36.7399323 -106.10212636 21.19275069 C-78.07910444 -4.45256028 -35.13688008 -0.07340153 0 0 Z " fill="#543283" transform="translate(123.98103260993958,-0.2357194423675537)"/>
<path d="M0 0 C2.42515339 1.9261146 4.71057914 3.90965921 7 6 C6.53419231 10.33718717 3.73450398 12.85199795 0.8125 15.8125 C0.34263672 16.32748047 -0.12722656 16.84246094 -0.61132812 17.37304688 C-2.04296875 18.83203125 -2.04296875 18.83203125 -5 21 C-8.36328125 20.82421875 -8.36328125 20.82421875 -11 20 C-11 19.34 -11 18.68 -11 18 C-18.62896995 14.55465873 -26.33858168 13.66980886 -34.625 13.75 C-35.43195313 13.74226563 -36.23890625 13.73453125 -37.0703125 13.7265625 C-42.67929054 13.74477347 -48.07850996 14.05032793 -52.890625 17.26171875 C-55.04243119 20.6333869 -54.76667336 24.15588705 -54.66796875 28.04296875 C-53.86739016 31.58705059 -53.00270096 32.55710997 -50.0625 34.625 C-46.18655282 36.71581063 -42.38749857 37.9133882 -38.04296875 38.578125 C-36 39 -36 39 -34.05078125 39.99609375 C-31.66698699 41.1630178 -29.62615651 41.45687464 -27 41.8125 C-14.85348609 43.91229629 -0.8587459 50.02700539 6.78515625 60.0859375 C12.37658886 68.89559016 13.17131553 77.82095707 12 88 C10.8861538 91.80863541 9.25675643 94.75247246 7 98 C6.43023437 98.86367187 5.86046875 99.72734375 5.2734375 100.6171875 C0.48692664 107.25527046 -4.71880857 110.50633416 -12 114 C-13.27230469 114.78503906 -13.27230469 114.78503906 -14.5703125 115.5859375 C-25.68935811 122.05715054 -43.96739099 119.97107545 -55.87109375 117.046875 C-63.12569833 114.61961654 -68.89812476 110.6849467 -74 105 C-74.845625 104.154375 -75.69125 103.30875 -76.5625 102.4375 C-77.366875 101.633125 -78.17125 100.82875 -79 100 C-79.78375 99.34 -80.5675 98.68 -81.375 98 C-83 96 -83 96 -82.8828125 93.60546875 C-81.75915669 90.28919252 -80.33724222 89.31024176 -77.5 87.3125 C-74.21012178 85.12264394 -74.21012178 85.12264394 -72 82 C-69.03312444 81.73308386 -67.49274876 81.65604204 -65.0078125 83.390625 C-64.38648438 84.00421875 -63.76515625 84.6178125 -63.125 85.25 C-54.21343776 93.54293597 -45.10569731 96.71798102 -33.03125 96.35546875 C-26.72460845 95.94345467 -20.41873553 94.45456865 -15.890625 89.859375 C-14 88 -14 88 -11 88 C-11.2717683 80.36331078 -11.78188815 75.21811185 -17.3984375 69.6015625 C-21.78331209 65.90115614 -26.10325576 65.26724829 -31.6796875 64.51953125 C-40.84594785 63.0852811 -49.71701857 60.14929013 -58 56 C-58.73605469 55.67773438 -59.47210938 55.35546875 -60.23046875 55.0234375 C-68.17965384 51.21986873 -74.38630915 44.19572795 -78.0625 36.1875 C-80.01353355 29.64817375 -80.36631682 21.73568369 -78.015625 15.30859375 C-76.79865225 13.08874531 -75.47244201 11.05715086 -74 9 C-73.401875 7.96875 -72.80375 6.9375 -72.1875 5.875 C-69.28890485 2.0654178 -66.0112044 -1.35197834 -62 -4 C-60.68 -4 -59.36 -4 -58 -4 C-58 -4.66 -58 -5.32 -58 -6 C-56.62708132 -6.48509793 -55.25153297 -6.96275513 -53.875 -7.4375 C-53.10929687 -7.70433594 -52.34359375 -7.97117187 -51.5546875 -8.24609375 C-34.54490809 -13.26579929 -14.28476578 -10.52018852 0 0 Z " fill="#F8F6F9" transform="translate(273,118)"/>
<path d="M0 0 C12.36918715 -0.02312154 24.73836919 -0.04091412 37.10757351 -0.05181217 C42.85045062 -0.05704141 48.59331301 -0.0641398 54.33618164 -0.07543945 C59.87339995 -0.08626687 65.41060404 -0.09227652 70.94783211 -0.09487724 C73.06544277 -0.09673176 75.18305262 -0.10035286 77.30065727 -0.10573006 C80.25571274 -0.11293856 83.21070871 -0.11399102 86.16577148 -0.11352539 C87.05049637 -0.11712067 87.93522125 -0.12071594 88.84675598 -0.12442017 C94.88594784 -0.11405216 94.88594784 -0.11405216 96 1 C96.09880797 2.47652664 96.13079245 3.95767236 96.1328125 5.4375 C96.13410156 6.33210938 96.13539063 7.22671875 96.13671875 8.1484375 C96.13285156 9.08945313 96.12898438 10.03046875 96.125 11 C96.12886719 11.94101563 96.13273437 12.88203125 96.13671875 13.8515625 C96.13542969 14.74617188 96.13414062 15.64078125 96.1328125 16.5625 C96.13168457 17.38878906 96.13055664 18.21507812 96.12939453 19.06640625 C96 21 96 21 95 22 C92.05290585 22.10059769 89.12920859 22.1361505 86.18164062 22.12939453 C84.79394722 22.13202301 84.79394722 22.13202301 83.3782196 22.13470459 C80.30421095 22.13912467 77.2302593 22.13618457 74.15625 22.1328125 C72.03015125 22.13348549 69.90405258 22.13445548 67.7779541 22.13571167 C63.3156664 22.13718886 58.85339867 22.13503342 54.39111328 22.13037109 C48.65729431 22.1246738 42.92352215 22.12795269 37.1897049 22.13394356 C32.79754277 22.13754861 28.40539183 22.13641084 24.01322937 22.13381577 C21.89841201 22.13314634 19.78359366 22.13397545 17.66877747 22.13629532 C14.71861054 22.13882093 11.76852054 22.13498254 8.81835938 22.12939453 C7.49362862 22.13243088 7.49362862 22.13243088 6.14213562 22.13552856 C0.11426234 22.11426234 0.11426234 22.11426234 -1 21 C-1.09862603 19.60825641 -1.1307898 18.21163857 -1.1328125 16.81640625 C-1.13410156 15.97142578 -1.13539062 15.12644531 -1.13671875 14.25585938 C-1.13091797 12.92264648 -1.13091797 12.92264648 -1.125 11.5625 C-1.12886719 10.67755859 -1.13273437 9.79261719 -1.13671875 8.88085938 C-1.13478516 7.61145508 -1.13478516 7.61145508 -1.1328125 6.31640625 C-1.13168457 5.53724854 -1.13055664 4.75809082 -1.12939453 3.95532227 C-1 2 -1 2 0 0 Z " fill="#FBFAFC" transform="translate(85,110)"/>
<path d="M0 0 C7.26 0 14.52 0 22 0 C22 30.69 22 61.38 22 93 C2 93 2 93 0 92 C0 61.64 0 31.28 0 0 Z " fill="#FDFCFC" transform="translate(122,142)"/>
<path d="M0 0 C2.37303181 -0.00122944 4.74606347 -0.00279898 7.11909485 -0.00468445 C14.7903462 -0.00856339 22.46156688 -0.00109371 30.1328125 0.0078125 C32.0858045 0.00971777 32.0858045 0.00971777 34.07825089 0.01166153 C50.01778483 0.027261 65.95721794 0.05743257 81.89669323 0.10236645 C89.1334758 0.12268397 96.37024165 0.13871366 103.60704422 0.14969254 C114.72847136 0.16690787 125.8493436 0.21059908 136.97052002 0.28741455 C140.58723 0.31159603 144.20370749 0.32471014 147.82049561 0.32781982 C185.74107968 0.37444609 185.74107968 0.37444609 199.2578125 7.1328125 C199.2578125 7.7928125 199.2578125 8.4528125 199.2578125 9.1328125 C200.9078125 9.1328125 202.5578125 9.1328125 204.2578125 9.1328125 C204.5878125 10.1228125 204.9178125 11.1128125 205.2578125 12.1328125 C203.67313522 11.84853833 202.0901068 11.55506432 200.5078125 11.2578125 C199.62609375 11.09539063 198.744375 10.93296875 197.8359375 10.765625 C195.2578125 10.1328125 195.2578125 10.1328125 193.28515625 9.09765625 C190.68342405 7.85945229 188.43638715 7.75015964 185.5703125 7.5703125 C180.35696264 7.23196264 180.35696264 7.23196264 179.2578125 6.1328125 C177.22525724 6.03379242 175.18920155 6.00648927 173.15423584 6.00582886 C172.50882316 6.00426887 171.86341048 6.00270888 171.19843984 6.00110161 C169.01736169 5.99708749 166.8363522 6.00028364 164.65527344 6.00341797 C163.09581969 6.00206342 161.53636627 6.00028318 159.97691345 5.99810791 C155.7111455 5.9935204 151.44540156 5.99533362 147.17963314 5.998487 C142.6680336 6.00102698 138.15643605 5.99866637 133.64483643 5.99710083 C126.01110471 5.99527423 118.3773826 5.99768814 110.74365234 6.00244141 C103.01285159 6.0072013 95.2820702 6.00732738 87.55126953 6.00244141 C62.4531697 5.98720859 37.3556678 6.01496372 12.2578125 6.1328125 C11.14978964 6.13773051 11.14978964 6.13773051 10.01938248 6.14274788 C1.68055575 6.18009181 -6.65750228 6.23948004 -14.99575043 6.34988785 C-17.13106416 6.37630095 -19.26646067 6.39690974 -21.40189362 6.41064072 C-31.94298595 6.48570957 -42.17950862 7.08826124 -52.58300781 8.86669922 C-53.91462511 9.08527179 -53.91462511 9.08527179 -55.27314377 9.30825996 C-67.43359268 11.61700592 -77.37802739 19.08047726 -84.8046875 28.8828125 C-86.54738903 31.80605378 -87.43704872 33.77628592 -87.7421875 37.1328125 C-88.4021875 37.1328125 -89.0621875 37.1328125 -89.7421875 37.1328125 C-89.86335938 37.91527344 -89.98453125 38.69773438 -90.109375 39.50390625 C-90.27695313 40.51582031 -90.44453125 41.52773437 -90.6171875 42.5703125 C-90.77960938 43.57964844 -90.94203125 44.58898437 -91.109375 45.62890625 C-91.31820312 46.45519531 -91.52703125 47.28148437 -91.7421875 48.1328125 C-92.7321875 48.6278125 -92.7321875 48.6278125 -93.7421875 49.1328125 C-93.23122701 42.69471031 -92.04122146 37.16090154 -89.7421875 31.1328125 C-89.29359375 29.91464844 -89.29359375 29.91464844 -88.8359375 28.671875 C-85.32894232 20.53063619 -79.43694537 13.57837049 -71.7421875 9.1328125 C-68.96875 8.44921875 -68.96875 8.44921875 -66.7421875 8.1328125 C-66.7421875 7.4728125 -66.7421875 6.8128125 -66.7421875 6.1328125 C-65.87207031 5.95105469 -65.87207031 5.95105469 -64.984375 5.765625 C-64.20320313 5.59804688 -63.42203125 5.43046875 -62.6171875 5.2578125 C-61.85148437 5.09539063 -61.08578125 4.93296875 -60.296875 4.765625 C-57.66689935 4.16290013 -57.66689935 4.16290013 -54.9140625 3.09765625 C-51.24401818 1.98127577 -47.94696852 1.747827 -44.1171875 1.5703125 C-42.82554688 1.50714844 -41.53390625 1.44398437 -40.203125 1.37890625 C-39.48523804 1.34481155 -38.76735107 1.31071686 -38.02770996 1.27558899 C-36.52147123 1.18149432 -35.016849 1.05522196 -33.51623535 0.8946991 C-22.38046797 -0.27119643 -11.1814641 -0.01064477 0 0 Z " fill="#C679DF" transform="translate(120.7421875,24.8671875)"/>
<path d="M0 0 C5.19174071 0.00892571 10.38347972 0.0070202 15.57522655 0.00663924 C24.29371228 0.00757035 33.01216282 0.01617461 41.73063731 0.0299089 C51.7223052 0.04559361 61.71393459 0.05090777 71.70561391 0.05017334 C82.45961783 0.04949038 93.21360748 0.0564755 103.96760702 0.06561995 C107.01256548 0.067722 110.05752154 0.06845708 113.10248065 0.06885886 C131.51433818 0.07369178 149.92370571 0.09504896 168.32927012 0.62121749 C169.51381062 0.65142643 170.69835111 0.68163537 171.91878676 0.71275973 C194.29606029 1.46839824 216.00588833 5.04290805 232.39396739 21.41150069 C238.82989135 28.33586531 244.00934014 36.20683769 247.01896739 45.23571944 C246.68896739 45.89571944 246.35896739 46.55571944 246.01896739 47.23571944 C245.02896739 46.57571944 244.03896739 45.91571944 243.01896739 45.23571944 C243.01896739 43.91571944 243.01896739 42.59571944 243.01896739 41.23571944 C241.69896739 40.90571944 240.37896739 40.57571944 239.01896739 40.23571944 C238.58584239 38.53415694 238.58584239 38.53415694 238.14396739 36.79821944 C237.77271739 35.62259444 237.40146739 34.44696944 237.01896739 33.23571944 C236.35896739 32.90571944 235.69896739 32.57571944 235.01896739 32.23571944 C235.01896739 31.24571944 235.01896739 30.25571944 235.01896739 29.23571944 C233.36896739 28.90571944 231.71896739 28.57571944 230.01896739 28.23571944 C230.01896739 26.58571944 230.01896739 24.93571944 230.01896739 23.23571944 C229.02896739 23.23571944 228.03896739 23.23571944 227.01896739 23.23571944 C226.35896739 22.57571944 225.69896739 21.91571944 225.01896739 21.23571944 C224.35896739 20.90571944 223.69896739 20.57571944 223.01896739 20.23571944 C221.89396739 18.17321944 221.89396739 18.17321944 221.01896739 16.23571944 C220.35896739 16.56571944 219.69896739 16.89571944 219.01896739 17.23571944 C218.35896739 15.91571944 217.69896739 14.59571944 217.01896739 13.23571944 C215.03896739 13.23571944 213.05896739 13.23571944 211.01896739 13.23571944 C211.01896739 12.57571944 211.01896739 11.91571944 211.01896739 11.23571944 C210.35896739 11.23571944 209.69896739 11.23571944 209.01896739 11.23571944 C209.01896739 10.57571944 209.01896739 9.91571944 209.01896739 9.23571944 C207.50302989 9.29759444 207.50302989 9.29759444 205.95646739 9.36071944 C201.3895886 9.21573916 197.60173214 8.08109391 193.28849864 6.66931319 C189.99456846 6.04000811 186.73156135 6.17754538 183.39396739 6.23571944 C177.11469635 6.30185292 170.90849292 6.0977082 164.64396739 5.67321944 C158.74575889 5.27987947 153.15958645 5.24638856 147.28068614 6.07946944 C145.01896739 6.23571944 145.01896739 6.23571944 143.01237559 5.75378585 C138.63072394 4.99545742 134.30132607 5.09337735 129.86271739 5.10290694 C128.88282847 5.10195022 127.90293956 5.10099349 126.89335704 5.10000777 C124.82568874 5.09932857 122.75801829 5.10116475 120.69035411 5.10534835 C117.53031177 5.11070023 114.37041157 5.10539454 111.21037364 5.09900069 C109.19865458 5.09966152 107.1869356 5.10094278 105.17521739 5.10290694 C104.23238902 5.10088271 103.28956065 5.09885848 102.31816173 5.09677291 C97.37557482 5.08318845 97.37557482 5.08318845 92.50920177 5.80652022 C89.19006335 6.37858349 86.21138406 5.88113253 82.87901378 5.49792647 C77.57230269 5.01141095 72.25737298 5.13515575 66.93302989 5.17321944 C65.71368754 5.17700606 64.4943452 5.18079268 63.23805308 5.18469405 C59.37332053 5.19683221 55.50866544 5.2154728 51.64396739 5.23571944 C46.53199035 5.26228174 41.42004978 5.28226917 36.30802989 5.29821944 C35.13511394 5.30651778 33.96219798 5.31481612 32.75373912 5.32336593 C31.12086452 5.32832076 31.12086452 5.32832076 29.45500255 5.33337569 C28.49921306 5.33861251 27.54342357 5.34384933 26.55867076 5.34924483 C24.215433 5.24450151 22.2723899 4.83704843 20.01896739 4.23571944 C18.4092929 4.36783678 16.80377806 4.5592517 15.20646739 4.79821944 C10.63395732 5.34961036 7.4427378 4.53682839 3.01896739 3.23571944 C1.87427989 3.69978194 1.87427989 3.69978194 0.70646739 4.17321944 C-2.92964616 5.61075271 -5.76661634 4.98513323 -9.57868886 4.42712569 C-11.99415864 4.23467363 -13.68670159 4.50979946 -15.98103261 5.23571944 C-15.98103261 4.57571944 -15.98103261 3.91571944 -15.98103261 3.23571944 C-21.47035966 3.04787175 -26.57032741 3.00410154 -31.91853261 4.36071944 C-37.09284196 5.56694911 -41.46616568 4.7401561 -46.60993886 3.64587569 C-47.3923998 3.51052413 -48.17486073 3.37517257 -48.98103261 3.23571944 C-49.31103261 3.56571944 -49.64103261 3.89571944 -49.98103261 4.23571944 C-51.88861313 4.23571944 -53.79630791 4.23206266 -55.70368886 4.20446944 C-59.18030186 4.25217597 -62.5411272 4.74430438 -65.98103261 5.23571944 C-65.32103261 4.24571944 -64.66103261 3.25571944 -63.98103261 2.23571944 C-60.78020029 1.64773289 -57.78079452 1.29490098 -54.54572988 1.06262374 C-52.97817496 0.94295383 -52.97817496 0.94295383 -51.37895226 0.82086635 C-34.28623174 -0.31127597 -17.12042893 -0.03576486 0 0 Z " fill="#CD9CE8" transform="translate(123.98103260993958,-0.2357194423675537)"/>
<path d="M0 0 C7.75978851 0.00439379 15.51956108 0.00120457 23.27934861 -0.00362718 C30.85064811 -0.00815056 38.42194066 -0.00881578 45.99324107 -0.00618851 C50.47776961 -0.00463453 54.96228719 -0.00440991 59.44681501 -0.007725 C63.6137899 -0.01059568 67.7807342 -0.00864323 71.94770575 -0.00283074 C73.47603444 -0.00150323 75.00436569 -0.00189712 76.53269339 -0.00409341 C78.60740729 -0.00680261 80.68202122 -0.00342798 82.75672865 0.00158668 C84.49936302 0.00215221 84.49936302 0.00215221 86.27720213 0.00272918 C88.86030531 0.12857032 88.86030531 0.12857032 89.86030531 1.12857032 C91.48305712 1.26330063 93.10896735 1.3604445 94.73530531 1.44107032 C100.03824054 1.8606281 104.34879301 3.2565482 109.26655531 5.20669532 C112.81903259 6.46932278 116.11206131 6.84568398 119.86030531 7.12857032 C119.86030531 8.11857032 119.86030531 9.10857032 119.86030531 10.12857032 C120.52030531 10.12857032 121.18030531 10.12857032 121.86030531 10.12857032 C124.97480913 14.28124207 124.97480913 14.28124207 124.54780531 17.44107032 C124.20749281 18.27638282 124.20749281 18.27638282 123.86030531 19.12857032 C123.86030531 18.13857032 123.86030531 17.14857032 123.86030531 16.12857032 C123.20030531 16.12857032 122.54030531 16.12857032 121.86030531 16.12857032 C121.86030531 15.46857032 121.86030531 14.80857032 121.86030531 14.12857032 C119.55030531 13.79857032 117.24030531 13.46857032 114.86030531 13.12857032 C114.86030531 12.46857032 114.86030531 11.80857032 114.86030531 11.12857032 C113.93218031 10.83982032 113.00405531 10.55107032 112.04780531 10.25357032 C108.86030531 9.12857032 108.86030531 9.12857032 105.86030531 7.12857032 C103.53482524 6.43500609 101.20150085 5.76707819 98.86030531 5.12857032 C98.20030531 4.79857032 97.54030531 4.46857032 96.86030531 4.12857032 C86.6202605 2.44242921 75.97717295 2.98026709 65.63569593 2.98330665 C63.59596143 2.9803104 61.55622748 2.9769068 59.51649427 2.97312903 C53.9995139 2.96433023 48.48254906 2.9619526 42.96556234 2.96131325 C39.50979532 2.96060017 36.05403218 2.95846094 32.59826612 2.95581603 C20.51633916 2.9465748 8.43442319 2.94247943 -3.64750719 2.94326758 C-14.86668217 2.94386739 -26.08580891 2.93333149 -37.30497169 2.91752392 C-46.97080554 2.90439579 -56.63662372 2.89908592 -66.30246639 2.89972299 C-72.0602941 2.89997652 -77.81807895 2.89720649 -83.57589769 2.88654494 C-88.99981603 2.8767753 -94.42365132 2.87684475 -99.8475728 2.88406157 C-101.8230481 2.88509664 -103.7985288 2.88280982 -105.77399492 2.87670112 C-115.39884062 2.84889874 -124.95098494 3.02541804 -134.53874254 3.92890906 C-135.30570877 3.99439565 -136.07267499 4.05988223 -136.86288261 4.12735325 C-144.13229686 4.91024013 -149.21432796 7.87858683 -155.13969469 12.12857032 C-155.98531969 12.61841407 -156.83094469 13.10825782 -157.70219469 13.61294532 C-165.97973555 18.75987778 -170.420072 25.94984373 -173.13969469 35.12857032 C-173.38848375 35.91360938 -173.63727282 36.69864844 -173.89360094 37.50747657 C-176.42937561 46.31531227 -176.75313884 55.01750466 -176.98197985 64.12075782 C-177.13969469 66.12857032 -177.13969469 66.12857032 -177.71537828 68.19888282 C-178.3570153 70.33091966 -178.3570153 70.33091966 -177.13969469 73.12857032 C-177.61741692 74.69822907 -178.09975059 76.26662401 -178.60453844 77.82778907 C-179.54414709 81.86742042 -179.54771495 86.00680396 -179.69828844 90.14028907 C-180.17597229 93.37416644 -180.85628293 94.82271717 -183.13969469 97.12857032 C-183.79969469 97.12857032 -184.45969469 97.12857032 -185.13969469 97.12857032 C-185.96648447 91.15024421 -186.13092398 85.7099912 -185.40141344 79.72232032 C-184.84532933 74.2112778 -184.37624279 68.41892602 -186.13969469 63.12857032 C-185.47969469 63.12857032 -184.81969469 63.12857032 -184.13969469 63.12857032 C-184.28406969 61.87044532 -184.42844469 60.61232032 -184.57719469 59.31607032 C-184.65840563 58.60837501 -184.73961657 57.90067969 -184.82328844 57.17153907 C-185.11140204 54.93460639 -185.11140204 54.93460639 -186.13969469 52.12857032 C-185.47969469 52.12857032 -184.81969469 52.12857032 -184.13969469 52.12857032 C-184.36656969 51.44794532 -184.59344469 50.76732032 -184.82719469 50.06607032 C-185.17832528 46.76544279 -184.39109208 44.99042543 -182.97563219 42.04263282 C-181.57933304 38.84549925 -180.91397749 35.52350258 -180.13969469 32.12857032 C-179.47969469 32.12857032 -178.81969469 32.12857032 -178.13969469 32.12857032 C-178.19254625 31.38349219 -178.24539782 30.63841407 -178.29985094 29.87075782 C-177.93180995 23.569178 -171.489577 18.00082569 -167.10844469 13.79263282 C-151.0625439 0.2300262 -129.12764655 0.7938972 -109.24906969 0.51138282 C-108.13979868 0.49294444 -107.03052767 0.47450606 -105.88764238 0.45550895 C-70.59621764 -0.12743831 -35.29501009 -0.02233067 0 0 Z " fill="#8843AA" transform="translate(211.13969469070435,29.871429681777954)"/>
<path d="M0 0 C0.78052734 0.22107422 1.56105469 0.44214844 2.36523438 0.66992188 C3.15607422 0.90388672 3.94691406 1.13785156 4.76171875 1.37890625 C5.97698242 1.72405273 5.97698242 1.72405273 7.21679688 2.07617188 C13.09712115 3.76535745 13.09712115 3.76535745 15.44921875 4.94140625 C15.44921875 5.60140625 15.44921875 6.26140625 15.44921875 6.94140625 C17.09921875 6.94140625 18.74921875 6.94140625 20.44921875 6.94140625 C20.77921875 7.93140625 21.10921875 8.92140625 21.44921875 9.94140625 C19.86454147 9.65713208 18.28151305 9.36365807 16.69921875 9.06640625 C15.8175 8.90398438 14.93578125 8.7415625 14.02734375 8.57421875 C11.44921875 7.94140625 11.44921875 7.94140625 9.4765625 6.90625 C6.8748303 5.66804604 4.6277934 5.55875339 1.76171875 5.37890625 C-3.45163111 5.04055639 -3.45163111 5.04055639 -4.55078125 3.94140625 C-6.58333651 3.84238617 -8.6193922 3.81508302 -10.65435791 3.81442261 C-11.29977059 3.81286262 -11.94518327 3.81130263 -12.61015391 3.80969536 C-14.79123206 3.80568124 -16.97224155 3.80887739 -19.15332031 3.81201172 C-20.71277406 3.81065717 -22.27222748 3.80887693 -23.8316803 3.80670166 C-28.09744825 3.80211415 -32.36319219 3.80392737 -36.62896061 3.80708075 C-41.14056015 3.80962073 -45.6521577 3.80726012 -50.16375732 3.80569458 C-57.79748904 3.80386798 -65.43121115 3.80628189 -73.06494141 3.81103516 C-80.79574215 3.81579505 -88.52652356 3.81592632 -96.25732422 3.81103516 C-149.36693061 3.7605493 -149.36693061 3.7605493 -202.47265625 4.32421875 C-203.52551064 4.33936398 -204.57836502 4.3545092 -205.66312408 4.37011337 C-217.43295213 4.54786931 -228.90391433 5.16346283 -240.55078125 6.94140625 C-235.74052195 2.13114695 -226.48538573 2.83818267 -219.98876953 2.80517578 C-216.84164096 2.82132931 -213.69715437 2.86953478 -210.55078125 2.94140625 C-210.55078125 2.28140625 -210.55078125 1.62140625 -210.55078125 0.94140625 C-209.91402214 0.93717431 -209.27726303 0.93294237 -208.62120819 0.92858219 C-192.7678876 0.82301886 -176.91459311 0.71415469 -161.06131744 0.60206699 C-153.39326393 0.5479228 -145.72520651 0.49472011 -138.05712891 0.4440918 C-129.14874 0.38513379 -120.24037429 0.32334853 -111.33203125 0.2578125 C-110.59568954 0.2523996 -109.85934784 0.2469867 -109.10069275 0.24140978 C-83.15992738 0.04889153 -57.2230207 -0.29423075 -31.28527832 -0.73155212 C-29.3635656 -0.76391999 -29.3635656 -0.76391999 -27.4030304 -0.79694176 C-25.02747836 -0.83737635 -22.65193807 -0.87850926 -20.27641296 -0.92049599 C-4.16161911 -1.19943315 -4.16161911 -1.19943315 0 0 Z " fill="#9E58BD" transform="translate(304.55078125,27.05859375)"/>
<path d="M0 0 C0.66 0.33 1.32 0.66 2 1 C1.56655273 1.42297363 1.13310547 1.84594727 0.68652344 2.28173828 C-1.29770403 4.22407533 -3.2738637 6.17443293 -5.25 8.125 C-5.93191406 8.79015625 -6.61382813 9.4553125 -7.31640625 10.140625 C-11.0926328 13.88018915 -14.2018312 17.4850803 -17 22 C-18 23 -19 24 -20 25 C-24.03477 32.12018235 -26.02036921 39.82912896 -26.77734375 47.921875 C-27 50 -27 50 -27.625 52.875 C-28.20532078 55.17784291 -28.20532078 55.17784291 -27 58 C-27 62 -27 62 -27.46484375 65.83984375 C-28.22643196 72.3932633 -28.35688378 78.9726687 -28.5625 85.5625 C-28.60568359 86.85736328 -28.64886719 88.15222656 -28.69335938 89.48632812 C-28.79867385 92.65746384 -28.90080617 95.82866793 -29 99 C-29.99 99.495 -29.99 99.495 -31 100 C-31.33 155.77 -31.66 211.54 -32 269 C-32.33 269 -32.66 269 -33 269 C-33.0935787 240.44427216 -33.16404553 211.88856741 -33.20724869 183.33271694 C-33.2278448 170.07275189 -33.255909 156.81288229 -33.30175781 143.55297852 C-33.34171588 131.99118851 -33.36745424 120.42946766 -33.37635398 108.86761051 C-33.38155351 102.74973647 -33.39371281 96.63206024 -33.42292023 90.5142498 C-33.45023104 84.74653818 -33.45841345 78.97910437 -33.45243073 73.21133423 C-33.45352398 71.10355681 -33.46138379 68.99576933 -33.4768219 66.88804817 C-33.61800263 46.60448541 -30.45957776 26.54752425 -16.12109375 10.95703125 C-11.36236309 6.60207168 -5.86797384 2.70493961 0 0 Z " fill="#8673AB" transform="translate(34,10)"/>
<path d="M0 0 C1.72355915 0.09465084 3.44356979 0.25305615 5.16038513 0.43238831 C15.24152232 1.28342219 25.32399166 1.11476978 35.43383789 1.08178711 C37.6853936 1.07822568 39.93695011 1.07514116 42.18850708 1.07249451 C47.01304643 1.06597458 51.83756683 1.05643614 56.66209602 1.04459953 C64.2883526 1.0262354 71.91460473 1.01669007 79.5408783 1.00868225 C90.22737088 0.99680048 100.91385673 0.98283046 111.6003418 0.96557617 C112.27679182 0.96448605 112.95324184 0.96339593 113.65019035 0.96227277 C123.27175897 0.94662773 132.89331969 0.92802152 142.51488065 0.9082749 C143.19405939 0.90688158 143.87323813 0.90548827 144.57299805 0.90405273 C145.5905155 0.90196244 145.5905155 0.90196244 146.62858886 0.89982992 C157.93365835 0.87680702 169.23872315 0.8616021 180.54381365 0.85249335 C188.12872554 0.84594508 195.71354914 0.83037726 203.29843056 0.80817592 C208.00544071 0.79647127 212.71242921 0.79308009 217.41945267 0.79207802 C219.6060301 0.78992552 221.79260719 0.78431671 223.97916603 0.7750473 C226.95709858 0.76290803 229.93478531 0.76300533 232.91273499 0.76622009 C233.78324322 0.75971229 234.65375146 0.75320449 235.55063874 0.74649948 C236.74710578 0.75154758 236.74710578 0.75154758 237.96774387 0.75669765 C238.9983666 0.75474538 238.9983666 0.75474538 240.04980999 0.75275367 C242.35704693 1.04526664 243.98578353 1.86521415 246 3 C233.85769631 3.93436128 221.79588439 4.14347249 209.62255859 4.12939453 C207.6263628 4.13075298 205.63016725 4.1325354 203.63397217 4.13470459 C198.25757455 4.13922791 192.88119633 4.13751005 187.50479841 4.1343255 C181.84301169 4.13177324 176.1812265 4.13414756 170.5194397 4.13571167 C161.00921332 4.13752594 151.49899473 4.1351475 141.98876953 4.13037109 C131.04846996 4.12493932 120.10818906 4.12668624 109.16788995 4.1321975 C99.72526179 4.1367611 90.2826392 4.13736311 80.84001029 4.13475883 C75.22246281 4.13321261 69.60492406 4.13295607 63.98737717 4.13629532 C58.69636682 4.1392212 53.4053801 4.13711337 48.11437225 4.13140106 C46.19175633 4.130098 44.26913835 4.13042476 42.34652328 4.13266373 C32.17908176 4.14339631 22.02608281 4.00542413 11.86538696 3.61691284 C10.922751 3.58655603 9.98011504 3.55619921 9.00891435 3.52492249 C7.69858293 3.46779503 7.69858293 3.46779503 6.36178017 3.40951347 C5.20478424 3.36361747 5.20478424 3.36361747 4.02441466 3.31679428 C2 3 2 3 -1 1 C-0.67 0.67 -0.34 0.34 0 0 Z " fill="#59547F" transform="translate(64,339)"/>
<path d="M0 0 C2.05389466 -0.00107615 4.10778901 -0.00301974 6.16168213 -0.00575256 C11.67767935 -0.01054851 17.19359412 -0.00301327 22.70958138 0.00720048 C28.50995903 0.01606195 34.31033472 0.01422202 40.11071777 0.01383972 C49.83749756 0.01477234 59.56424589 0.02340455 69.29101562 0.03710938 C80.51504888 0.05286596 91.73904785 0.05810601 102.96309137 0.05737382 C114.95768893 0.05669723 126.9522734 0.06364021 138.94686699 0.07282043 C142.38684515 0.07494522 145.82682117 0.07566069 149.26679993 0.07605934 C154.67765292 0.07706767 160.08847742 0.08320412 165.49932098 0.09322548 C167.47816035 0.09613228 169.457003 0.09737956 171.43584442 0.09679794 C198.01377086 0.09194424 198.01377086 0.09194424 202.74023438 3.24291992 C203.87460937 3.55229492 205.00898438 3.86166992 206.17773438 4.18041992 C209.49748437 5.1705208 211.11327478 6.12403163 213.74023438 8.24291992 C207.53141246 7.29853601 201.70515058 6.23122532 195.74023438 4.24291992 C194.75023437 4.57291992 193.76023437 4.90291992 192.74023438 5.24291992 C191.04358135 5.01033831 189.35673166 4.70510507 187.67773438 4.36791992 C181.16350856 3.29578032 174.727972 2.91585235 168.1340332 2.6809082 C166.43470123 2.61858851 166.43470123 2.61858851 164.70103931 2.55500984 C151.65034861 2.11704142 138.60153262 2.09581701 125.54477286 2.10859442 C122.0366686 2.11119268 118.52856645 2.10876062 115.02046204 2.10720825 C109.14376342 2.1054089 103.26707753 2.10773444 97.39038086 2.11254883 C90.66014073 2.11799985 83.92993088 2.11621356 77.19969147 2.11072242 C71.34410781 2.10614196 65.4885331 2.10556419 59.63294822 2.10816109 C56.16907336 2.10969543 52.7052126 2.10999786 49.24133873 2.1066246 C35.13563819 2.09720042 21.08173374 2.21285709 6.99693298 3.0227356 C1.20285025 3.35012541 -4.58380635 3.32120547 -10.38476562 3.24291992 C-12.40815031 3.21746854 -14.4315966 3.19641582 -16.45507812 3.18041992 C-17.31117676 3.16881836 -18.16727539 3.1572168 -19.04931641 3.14526367 C-21.43645468 3.14956726 -21.43645468 3.14956726 -24.25976562 4.24291992 C-24.25976562 3.58291992 -24.25976562 2.92291992 -24.25976562 2.24291992 C-24.92621094 2.4362793 -25.59265625 2.62963867 -26.27929688 2.82885742 C-32.89185721 4.69702132 -39.48055542 6.12834958 -46.25976562 7.24291992 C-46.25976562 6.58291992 -46.25976562 5.92291992 -46.25976562 5.24291992 C-41.3608409 2.40843297 -37.23482164 1.56371028 -31.71350098 1.07060242 C-30.88398879 0.99083245 -30.05447659 0.91106248 -29.19982767 0.82887524 C-19.47290752 -0.02774095 -9.7568459 -0.03017096 0 0 Z " fill="#723297" transform="translate(108.259765625,31.757080078125)"/>
<path d="M0 0 C1.46049007 -0.00672548 2.92096928 -0.01686164 4.38140869 -0.03076172 C27.10052101 -0.23108396 50.29389461 2.62438659 67.41445923 18.91748047 C74.57890524 26.07340752 80.25631789 34.5160545 83.47671509 44.17724609 C83.14671509 44.83724609 82.81671509 45.49724609 82.47671509 46.17724609 C81.48671509 45.51724609 80.49671509 44.85724609 79.47671509 44.17724609 C79.47671509 42.85724609 79.47671509 41.53724609 79.47671509 40.17724609 C78.15671509 39.84724609 76.83671509 39.51724609 75.47671509 39.17724609 C75.18796509 38.04287109 74.89921509 36.90849609 74.60171509 35.73974609 C74.23046509 34.56412109 73.85921509 33.38849609 73.47671509 32.17724609 C72.81671509 31.84724609 72.15671509 31.51724609 71.47671509 31.17724609 C71.47671509 30.18724609 71.47671509 29.19724609 71.47671509 28.17724609 C69.82671509 27.84724609 68.17671509 27.51724609 66.47671509 27.17724609 C66.47671509 25.52724609 66.47671509 23.87724609 66.47671509 22.17724609 C65.48671509 22.17724609 64.49671509 22.17724609 63.47671509 22.17724609 C62.48671509 21.18724609 62.48671509 21.18724609 61.47671509 20.17724609 C60.81671509 19.84724609 60.15671509 19.51724609 59.47671509 19.17724609 C58.35171509 17.11474609 58.35171509 17.11474609 57.47671509 15.17724609 C56.81671509 15.50724609 56.15671509 15.83724609 55.47671509 16.17724609 C54.48671509 14.19724609 54.48671509 14.19724609 53.47671509 12.17724609 C51.49671509 12.17724609 49.51671509 12.17724609 47.47671509 12.17724609 C47.47671509 11.51724609 47.47671509 10.85724609 47.47671509 10.17724609 C46.81671509 10.17724609 46.15671509 10.17724609 45.47671509 10.17724609 C45.47671509 9.51724609 45.47671509 8.85724609 45.47671509 8.17724609 C43.96077759 8.23912109 43.96077759 8.23912109 42.41421509 8.30224609 C37.8473363 8.15726581 34.05947984 7.02262056 29.74624634 5.61083984 C26.45231616 4.98153477 23.18930905 5.11907204 19.85171509 5.17724609 C13.57244405 5.24337957 7.36624061 5.03923485 1.10171509 4.61474609 C-4.79649341 4.22140612 -10.38266586 4.18791521 -16.26156616 5.02099609 C-18.86011091 5.20051559 -20.97905564 4.70566294 -23.52328491 4.17724609 C-25.29413905 4.15826297 -27.06576541 4.18216413 -28.83578491 4.23974609 C-36.49698135 4.32582695 -43.95586003 3.25281917 -51.52328491 2.17724609 C-51.52328491 1.84724609 -51.52328491 1.51724609 -51.52328491 1.17724609 C-34.35332528 0.58414505 -17.18113981 0.07001899 0 0 Z " fill="#BD7ADB" transform="translate(287.5232849121094,0.82275390625)"/>
<path d="M0 0 C1.051875 0.1546875 1.051875 0.1546875 2.125 0.3125 C0.35607042 2.37625117 -0.97122725 3.35374025 -3.5 4.4375 C-10.20213037 8.16090576 -16.13884422 14.06973469 -18.875 21.3125 C-19.205 22.17875 -19.535 23.045 -19.875 23.9375 C-20.205 25.05125 -20.535 26.165 -20.875 27.3125 C-21.12378906 28.09753906 -21.37257813 28.88257812 -21.62890625 29.69140625 C-24.16468092 38.49924195 -24.48844415 47.20143434 -24.71728516 56.3046875 C-24.875 58.3125 -24.875 58.3125 -25.45068359 60.3828125 C-26.09232061 62.51484934 -26.09232061 62.51484934 -24.875 65.3125 C-25.35272223 66.88215875 -25.8350559 68.45055369 -26.33984375 70.01171875 C-27.2794524 74.05135011 -27.28302026 78.19073365 -27.43359375 82.32421875 C-27.9112776 85.55809612 -28.59158824 87.00664685 -30.875 89.3125 C-31.535 89.3125 -32.195 89.3125 -32.875 89.3125 C-33.98878232 81.25899707 -33.57708666 74.03613907 -32.38671875 66.02734375 C-31.93872419 62.77510843 -31.59233838 59.52795731 -31.27954102 56.26049805 C-30.53870997 48.75802122 -29.45228042 41.38643994 -27.9375 34 C-27.70099731 32.80938965 -27.70099731 32.80938965 -27.4597168 31.59472656 C-26.53354533 27.27723552 -25.37828262 24.01840404 -22.875 20.3125 C-21.86340957 18.28188097 -20.89726838 16.23519146 -19.9375 14.1796875 C-17.68609942 10.22318206 -14.65797754 8.57567517 -10.70703125 6.4296875 C-8.84470976 5.29402877 -7.35661356 4.0321155 -5.75 2.5625 C-2.875 0.3125 -2.875 0.3125 0 0 Z " fill="#8047A5" transform="translate(58.875,37.6875)"/>
<path d="M0 0 C30.03 0 60.06 0 91 0 C91 0.66 91 1.32 91 2 C87.64047644 3.11984119 85.33089543 3.028066 81.80078125 2.87890625 C80.59228516 2.83056641 79.38378906 2.78222656 78.13867188 2.73242188 C76.87603516 2.67634766 75.61339844 2.62027344 74.3125 2.5625 C73.03826172 2.51029297 71.76402344 2.45808594 70.45117188 2.40429688 C67.30053961 2.27449555 64.15021423 2.1395244 61 2 C60.67 4.64 60.34 7.28 60 10 C59.34 10 58.68 10 58 10 C57.67 10.99 57.34 11.98 57 13 C57 11.02 57 9.04 57 7 C49.41 7 41.82 7 34 7 C34.33 6.34 34.66 5.68 35 5 C37.64860427 4.40644386 40.29197322 4.25790731 43 4 C41.00383446 2.00383446 37.18298037 2.59016573 34.4375 2.4375 C33.72658203 2.39431641 33.01566406 2.35113281 32.28320312 2.30664062 C30.52238088 2.20028223 28.7612168 2.09961154 27 2 C26.67 2.66 26.34 3.32 26 4 C25.01 3.34 24.02 2.68 23 2 C20.94992004 1.83188869 20.94992004 1.83188869 18.7265625 2.05859375 C17.4890625 2.14270508 17.4890625 2.14270508 16.2265625 2.22851562 C14.93878906 2.33196289 14.93878906 2.33196289 13.625 2.4375 C3.34290924 3.22423573 3.34290924 3.22423573 -1 2 C-0.67 1.34 -0.34 0.68 0 0 Z " fill="#502E73" transform="translate(88,133)"/>
<path d="M0 0 C7.26 0 14.52 0 22 0 C22 30.69 22 61.38 22 93 C15.4 93 8.8 93 2 93 C2 92.67 2 92.34 2 92 C8.27 92 14.54 92 21 92 C20.67 90.68 20.34 89.36 20 88 C19.88214704 85.20976391 19.81501688 82.44236767 19.79467773 79.65136719 C19.78477814 78.81197601 19.77487854 77.97258484 19.76467896 77.10775757 C19.73313002 74.33749192 19.70833265 71.56720914 19.68359375 68.796875 C19.66301852 66.87444619 19.6420219 64.95202184 19.62062073 63.02960205 C19.56545884 57.97277445 19.51602361 52.91590643 19.46777344 47.85900879 C19.41751546 42.69763597 19.36185182 37.53632179 19.30664062 32.375 C19.19913099 22.25004825 19.09816964 12.12504662 19 2 C13.06 1.67 7.12 1.34 1 1 C1 31.03 1 61.06 1 92 C0.67 92 0.34 92 0 92 C0 61.64 0 31.28 0 0 Z " fill="#E3DCF0" transform="translate(122,142)"/>
<path d="M0 0 C0 0.33 0 0.66 0 1 C-70.62 1 -141.24 1 -214 1 C-214 0.67 -214 0.34 -214 0 C-213.36324089 -0.00423194 -212.72648178 -0.00846388 -212.07042694 -0.01282406 C-196.21710635 -0.11838739 -180.36381186 -0.22725156 -164.51053619 -0.33933926 C-156.84248268 -0.39348345 -149.17442526 -0.44668614 -141.50634766 -0.49731445 C-132.59795875 -0.55627246 -123.68959304 -0.61805772 -114.78125 -0.68359375 C-114.04490829 -0.68900665 -113.30856659 -0.69441955 -112.5499115 -0.69999647 C-86.60914613 -0.89251472 -60.67223945 -1.235637 -34.73449707 -1.67295837 C-32.81278435 -1.70532624 -32.81278435 -1.70532624 -30.85224915 -1.73834801 C-28.47669711 -1.7787826 -26.10115682 -1.81991551 -23.72563171 -1.86190224 C-7.6258167 -2.14058013 -7.6258167 -2.14058013 0 0 Z " fill="#AF64CC" transform="translate(308,28)"/>
<path d="M0 0 C0.66 0.33 1.32 0.66 2 1 C1.56655273 1.42297363 1.13310547 1.84594727 0.68652344 2.28173828 C-1.29770403 4.22407533 -3.2738637 6.17443293 -5.25 8.125 C-5.93191406 8.79015625 -6.61382813 9.4553125 -7.31640625 10.140625 C-11.0926328 13.88018915 -14.2018312 17.4850803 -17 22 C-18 23 -19 24 -20 25 C-24.06295334 32.16991765 -26.09352139 39.90839825 -26.65625 48.08203125 C-27 50 -27 50 -29 52 C-29.33 51.34 -29.66 50.68 -30 50 C-30.66 55.61 -31.32 61.22 -32 67 C-32.33 67 -32.66 67 -33 67 C-33.78856842 46.65055385 -30.4805866 26.57036755 -16.12109375 10.95703125 C-11.36236309 6.60207168 -5.86797384 2.70493961 0 0 Z " fill="#C295DC" transform="translate(34,10)"/>
<path d="M0 0 C0.01030746 1.16289047 0.02061493 2.32578094 0.03123474 3.52391052 C0.12879033 14.45774909 0.231507 25.39152846 0.33933926 36.32527065 C0.39461557 41.9470513 0.44804296 47.56883709 0.49731445 53.19067383 C0.54488872 58.61122899 0.59722874 64.0317187 0.65294075 69.45219612 C0.67339585 71.52513064 0.69210358 73.59808314 0.70907402 75.67104912 C0.73304846 78.56388758 0.76311213 81.45660109 0.79467773 84.34936523 C0.8004332 85.21538864 0.80618866 86.08141205 0.81211853 86.97367859 C0.48925199 90.79681743 0.48925199 90.79681743 2 94 C3.34015221 94.15582303 4.68758903 94.25044142 6.03515625 94.31640625 C6.84404297 94.35830078 7.65292969 94.40019531 8.48632812 94.44335938 C9.33646484 94.48267578 10.18660156 94.52199219 11.0625 94.5625 C12.34350586 94.62727539 12.34350586 94.62727539 13.65039062 94.69335938 C15.76672037 94.79976702 17.88333813 94.90041731 20 95 C18.515 95.495 18.515 95.495 17 96 C17 96.66 17 97.32 17 98 C15.56465159 98.2226746 14.12654475 98.42761906 12.6875 98.625 C11.88699219 98.74101562 11.08648437 98.85703125 10.26171875 98.9765625 C8 99 8 99 5 97 C4.505 97.495 4.505 97.495 4 98 C2.33382885 98.04063832 0.66611905 98.042721 -1 98 C-1.9463512 89.15771242 -2.32188305 80.32170446 -2.5625 71.4375 C-2.58367889 70.69318726 -2.60485779 69.94887451 -2.62667847 69.18200684 C-3.25615481 46.4612771 -3.09235363 23.72694969 -3 1 C-1 0 -1 0 0 0 Z " fill="#4C3A6E" transform="translate(121,141)"/>
<path d="M0 0 C12.36918715 -0.02312154 24.73836919 -0.04091412 37.10757351 -0.05181217 C42.85045062 -0.05704141 48.59331301 -0.0641398 54.33618164 -0.07543945 C59.87339995 -0.08626687 65.41060404 -0.09227652 70.94783211 -0.09487724 C73.06544277 -0.09673176 75.18305262 -0.10035286 77.30065727 -0.10573006 C80.25571274 -0.11293856 83.21070871 -0.11399102 86.16577148 -0.11352539 C87.05049637 -0.11712067 87.93522125 -0.12071594 88.84675598 -0.12442017 C94.88594784 -0.11405216 94.88594784 -0.11405216 96 1 C96.09880797 2.47652664 96.13079245 3.95767236 96.1328125 5.4375 C96.13410156 6.33210938 96.13539063 7.22671875 96.13671875 8.1484375 C96.13285156 9.08945313 96.12898438 10.03046875 96.125 11 C96.12886719 11.94101563 96.13273437 12.88203125 96.13671875 13.8515625 C96.13542969 14.74617188 96.13414062 15.64078125 96.1328125 16.5625 C96.13168457 17.38878906 96.13055664 18.21507812 96.12939453 19.06640625 C96 21 96 21 95 22 C92.05290585 22.10059769 89.12920859 22.1361505 86.18164062 22.12939453 C84.79394722 22.13202301 84.79394722 22.13202301 83.3782196 22.13470459 C80.30421095 22.13912467 77.2302593 22.13618457 74.15625 22.1328125 C72.03015125 22.13348549 69.90405258 22.13445548 67.7779541 22.13571167 C63.3156664 22.13718886 58.85339867 22.13503342 54.39111328 22.13037109 C48.65729431 22.1246738 42.92352215 22.12795269 37.1897049 22.13394356 C32.79754277 22.13754861 28.40539183 22.13641084 24.01322937 22.13381577 C21.89841201 22.13314634 19.78359366 22.13397545 17.66877747 22.13629532 C14.71861054 22.13882093 11.76852054 22.13498254 8.81835938 22.12939453 C7.49362862 22.13243088 7.49362862 22.13243088 6.14213562 22.13552856 C0.11426234 22.11426234 0.11426234 22.11426234 -1 21 C-1.09862603 19.60825641 -1.1307898 18.21163857 -1.1328125 16.81640625 C-1.13410156 15.97142578 -1.13539062 15.12644531 -1.13671875 14.25585938 C-1.13091797 12.92264648 -1.13091797 12.92264648 -1.125 11.5625 C-1.12886719 10.67755859 -1.13273437 9.79261719 -1.13671875 8.88085938 C-1.13478516 7.61145508 -1.13478516 7.61145508 -1.1328125 6.31640625 C-1.13168457 5.53724854 -1.13055664 4.75809082 -1.12939453 3.95532227 C-1 2 -1 2 0 0 Z M2 1 C-0.98514842 6.97029685 1 14.3250052 1 21 C31.69 21 62.38 21 94 21 C95.30641294 13.03362073 95.30641294 13.03362073 95 1 C64.31 1 33.62 1 2 1 Z " fill="#BFABCF" transform="translate(85,110)"/>
<path d="M0 0 C31.68 0 63.36 0 96 0 C96.495 1.98 96.495 1.98 97 4 C97.66 4 98.32 4 99 4 C98.85879286 5.93784265 98.71187127 7.87526955 98.5625 9.8125 C98.44068359 11.43091797 98.44068359 11.43091797 98.31640625 13.08203125 C98 16 98 16 97 19 C98.485 19.495 98.485 19.495 100 20 C98.515 20.495 98.515 20.495 97 21 C96.67 22.32 96.34 23.64 96 25 C95.67 17.74 95.34 10.48 95 3 C92.19322754 2.98018066 89.38645508 2.96036133 86.49462891 2.93994141 C77.23851773 2.87314334 67.98252063 2.7955026 58.72654152 2.71247292 C53.11264153 2.66244939 47.49876093 2.61612003 41.88476562 2.578125 C36.47063883 2.54134854 31.05667184 2.49500974 25.64268112 2.44193649 C23.57337614 2.4233518 21.50403685 2.40825905 19.43468094 2.39665604 C16.54433956 2.37986309 13.65436745 2.35084541 10.76416016 2.31884766 C9.90173203 2.31668747 9.03930389 2.31452728 8.15074158 2.31230164 C2.22810432 2.22810432 2.22810432 2.22810432 0 0 Z " fill="#53316F" transform="translate(85,108)"/>
<path d="M0 0 C1.25183075 -0.00249756 2.5036615 -0.00499512 3.79342651 -0.00756836 C7.42220763 -0.01350973 11.05090525 -0.01194732 14.6796875 -0.0078125 C15.75681503 -0.00979645 16.83394257 -0.0117804 17.94371033 -0.01382446 C25.04843464 0.00760696 32.054492 0.43303145 39.125 1.125 C35.65858553 3.43594298 34.3967175 3.3510471 30.3203125 3.28515625 C28.60908203 3.2687207 28.60908203 3.2687207 26.86328125 3.25195312 C25.67089844 3.23068359 24.47851562 3.20941406 23.25 3.1875 C20.89850051 3.15295675 18.54693082 3.12284269 16.1953125 3.09765625 C14.62934326 3.07070679 14.62934326 3.07070679 13.03173828 3.04321289 C10.2079802 3.01822953 10.2079802 3.01822953 7.87060547 3.68920898 C5.20322744 4.1125835 3.2956567 3.99791831 0.63256836 3.68920898 C-5.58746802 2.97385565 -11.74231534 3.03621287 -17.99609375 3.09765625 C-20.50195182 3.11028753 -23.00781126 3.12264956 -25.51367188 3.13476562 C-29.43323101 3.15969638 -33.35271787 3.18783972 -37.2722168 3.22094727 C-41.07601398 3.25102523 -44.87971616 3.2688716 -48.68359375 3.28515625 C-49.86167099 3.29861588 -51.03974823 3.3120755 -52.25352478 3.32594299 C-53.34218338 3.32932175 -54.43084198 3.3327005 -55.55249023 3.33618164 C-56.98950539 3.34736778 -56.98950539 3.34736778 -58.45555115 3.35877991 C-60.875 3.125 -60.875 3.125 -63.875 1.125 C-42.58457065 0.24327278 -21.30766543 0.01493001 0 0 Z " fill="#C67EE2" transform="translate(208.875,1.875)"/>
<path d="M0 0 C1.051875 0.1546875 1.051875 0.1546875 2.125 0.3125 C0.35607042 2.37625117 -0.97122725 3.35374025 -3.5 4.4375 C-10.20213037 8.16090576 -16.13884422 14.06973469 -18.875 21.3125 C-19.205 22.17875 -19.535 23.045 -19.875 23.9375 C-20.205 25.05125 -20.535 26.165 -20.875 27.3125 C-21.12378906 28.09753906 -21.37257813 28.88257812 -21.62890625 29.69140625 C-24.16468092 38.49924195 -24.48844415 47.20143434 -24.71728516 56.3046875 C-24.875 58.3125 -24.875 58.3125 -25.45068359 60.3828125 C-26.09232061 62.51484934 -26.09232061 62.51484934 -24.875 65.3125 C-25.35152359 66.87822036 -25.8325073 68.44272257 -26.3359375 70 C-27.30066163 74.13852671 -27.33836001 78.38325215 -27.53125 82.6171875 C-27.6446875 83.50664063 -27.758125 84.39609375 -27.875 85.3125 C-28.865 85.8075 -28.865 85.8075 -29.875 86.3125 C-30.93896196 82.2452979 -30.72528075 79.1340353 -30.0625 75 C-29.02556271 68.10207447 -28.41434572 61.20312834 -27.875 54.25 C-25.92945774 29.97794361 -25.92945774 29.97794361 -21.875 23.3125 C-21.24792018 20.79297929 -21.24792018 20.79297929 -20.9375 18.25 C-20.16328338 14.03551436 -19.50729831 11.86492584 -15.875 9.3125 C-14.15047058 8.32249237 -12.42424898 7.33437285 -10.671875 6.39453125 C-8.8158686 5.27689262 -7.34570247 4.02248551 -5.75 2.5625 C-2.875 0.3125 -2.875 0.3125 0 0 Z " fill="#733598" transform="translate(58.875,37.6875)"/>
<path d="M0 0 C1.45792969 0.02707031 1.45792969 0.02707031 2.9453125 0.0546875 C8.33132477 0.33469425 11.66455486 1.61968243 16.046875 4.74609375 C18.12622593 6.08103705 20.01650324 6.72910259 22.375 7.4375 C26 9 26 9 27.5 12.1875 C27.7475 13.5796875 27.7475 13.5796875 28 15 C25.99205052 14.02941688 24.05868743 13.03678913 22.16796875 11.8515625 C7.37567051 2.69025747 -10.57320276 1.96177357 -27.2265625 5.5625 C-28.10441406 5.7790625 -28.10441406 5.7790625 -29 6 C-29 5.67 -29 5.34 -29 5 C-30.65 4.67 -32.3 4.34 -34 4 C-31.27612569 1.27612569 -28.54458952 1.29555484 -24.875 0.875 C-24.16649902 0.79080811 -23.45799805 0.70661621 -22.72802734 0.61987305 C-15.13139274 -0.2075247 -7.63482533 -0.24628469 0 0 Z " fill="#5C367C" transform="translate(248,105)"/>
<path d="M0 0 C0.66 0.33 1.32 0.66 2 1 C3.66392981 6.63887326 4.25318359 10.9085759 3.53515625 16.83984375 C2.77356804 23.3932633 2.64311622 29.9726687 2.4375 36.5625 C2.39431641 37.85736328 2.35113281 39.15222656 2.30664062 40.48632812 C2.20132615 43.65746384 2.09919383 46.82866793 2 50 C0.515 50.495 0.515 50.495 -1 51 C-1.02482932 45.02262673 -1.04292109 39.04528389 -1.05493164 33.06787109 C-1.05994189 31.03694129 -1.06675191 29.00601506 -1.07543945 26.97509766 C-1.08765047 24.04588943 -1.09326153 21.11672915 -1.09765625 18.1875 C-1.10281754 17.28821777 -1.10797882 16.38893555 -1.11329651 15.46240234 C-1.11375728 10.21430933 -0.76270154 5.19375999 0 0 Z " fill="#8A4AAD" transform="translate(3,59)"/>
<path d="M0 0 C0.66 0.33 1.32 0.66 2 1 C1.45730469 1.49628906 0.91460937 1.99257813 0.35546875 2.50390625 C-4.18496875 6.81527663 -6.89421801 10.12597656 -9 16 C-9.49161621 16.78439453 -9.98323242 17.56878906 -10.48974609 18.37695312 C-12.04350862 21.07556687 -12.71718356 23.24626771 -13.3515625 26.28125 C-13.66830933 27.78365234 -13.66830933 27.78365234 -13.99145508 29.31640625 C-14.2005249 30.36699219 -14.40959473 31.41757813 -14.625 32.5 C-14.95310669 34.10681641 -14.95310669 34.10681641 -15.2878418 35.74609375 C-16.7563415 43.16446195 -17.8372694 50.42563039 -18 58 C-20.35953094 55.64046906 -20.49141413 54.22104383 -21 51 C-20.34 51 -19.68 51 -19 51 C-19.144375 49.741875 -19.28875 48.48375 -19.4375 47.1875 C-19.51871094 46.47980469 -19.59992187 45.77210937 -19.68359375 45.04296875 C-19.97170735 42.80603607 -19.97170735 42.80603607 -21 40 C-20.34 40 -19.68 40 -19 40 C-19.226875 39.319375 -19.45375 38.63875 -19.6875 37.9375 C-20.03863059 34.63687247 -19.25139739 32.86185511 -17.8359375 29.9140625 C-16.43963835 26.71692893 -15.7742828 23.39493226 -15 20 C-14.34 20 -13.68 20 -13 20 C-13.05285156 19.25492188 -13.10570312 18.50984375 -13.16015625 17.7421875 C-12.7447238 10.62917337 -4.89944702 4.63852972 0 0 Z " fill="#9B52B9" transform="translate(46,42)"/>
<path d="M0 0 C-0.53367187 0.25652344 -1.06734375 0.51304688 -1.6171875 0.77734375 C-10.74681774 5.46852054 -18.71245035 12.13056187 -24 21 C-24.85852776 23.76429636 -24.85852776 23.76429636 -25 26 C-25.66 26 -26.32 26 -27 26 C-27.12117188 26.78246094 -27.24234375 27.56492187 -27.3671875 28.37109375 C-27.53476562 29.38300781 -27.70234375 30.39492187 -27.875 31.4375 C-28.03742187 32.44683594 -28.19984375 33.45617187 -28.3671875 34.49609375 C-28.57601563 35.32238281 -28.78484375 36.14867187 -29 37 C-29.99 37.495 -29.99 37.495 -31 38 C-30.48903951 31.56189781 -29.29903396 26.02808904 -27 20 C-26.54947266 18.78763672 -26.54947266 18.78763672 -26.08984375 17.55078125 C-23.74610687 12.06526088 -20.73455811 6.57520628 -15.45703125 3.53515625 C-12.99364489 2.57090605 -10.52659724 1.77871674 -8 1 C-7.32324219 0.6184375 -6.64648438 0.236875 -5.94921875 -0.15625 C-3.54697156 -1.19610049 -2.41844164 -0.86372916 0 0 Z " fill="#B96FD4" transform="translate(58,36)"/>
<path d="M0 0 C6.96036414 1.16006069 10.68292832 4.51969458 15 10 C19.44544823 16.58636032 23.05063357 23.27145126 25 31 C23.68 30.34 22.36 29.68 21 29 C21 27.68 21 26.36 21 25 C19.68 24.67 18.36 24.34 17 24 C16.71125 22.865625 16.4225 21.73125 16.125 20.5625 C15.75375 19.386875 15.3825 18.21125 15 17 C14.34 16.67 13.68 16.34 13 16 C13 15.01 13 14.02 13 13 C11.35 12.67 9.7 12.34 8 12 C8 10.35 8 8.7 8 7 C7.01 7 6.02 7 5 7 C4.34 6.34 3.68 5.68 3 5 C2.34 4.67 1.68 4.34 1 4 C0.375 1.9375 0.375 1.9375 0 0 Z " fill="#9557BC" transform="translate(346,16)"/>
<path d="M0 0 C1.54010742 0.03383789 1.54010742 0.03383789 3.11132812 0.06835938 C5.6382179 0.12712425 8.16210255 0.20922151 10.6875 0.3125 C10.3575 0.9725 10.0275 1.6325 9.6875 2.3125 C7.24609375 2.65625 7.24609375 2.65625 4.125 2.8125 C-0.94152499 3.14542578 -5.44254301 3.90770472 -10.3125 5.3125 C-11.7975 11.7475 -11.7975 11.7475 -13.3125 18.3125 C-12.3225 18.3125 -11.3325 18.3125 -10.3125 18.3125 C-9.6525 19.6325 -8.9925 20.9525 -8.3125 22.3125 C-11.68473221 21.12766166 -14.12628944 20.18777407 -16.3125 17.3125 C-16.78125 14.5703125 -16.78125 14.5703125 -16.8125 11.4375 C-16.8434375 10.40882813 -16.874375 9.38015625 -16.90625 8.3203125 C-15.0713338 -0.97498667 -7.75278231 -0.32241257 0 0 Z " fill="#654A81" transform="translate(234.3125,131.6875)"/>
<path d="M0 0 C0 0.66 0 1.32 0 2 C-7.31074682 3.66594452 -14.52165033 4.51172287 -22 5 C-22 5.66 -22 6.32 -22 7 C-24.74861395 8.1492567 -27.49877984 9.29451341 -30.25 10.4375 C-31.02730469 10.76298828 -31.80460937 11.08847656 -32.60546875 11.42382812 C-33.73662109 11.89272461 -33.73662109 11.89272461 -34.890625 12.37109375 C-35.58188477 12.65911865 -36.27314453 12.94714355 -36.98535156 13.24389648 C-38.97191686 13.98946031 -40.93306394 14.52784696 -43 15 C-39.62392874 11.3260401 -36.60879214 8.94593446 -32 7 C-31.34 7 -30.68 7 -30 7 C-30 6.34 -30 5.68 -30 5 C-29.12988281 4.81824219 -29.12988281 4.81824219 -28.2421875 4.6328125 C-24.72865509 3.87908443 -21.33681045 3.11685261 -17.9375 1.9375 C-12.03532649 0.0538276 -6.13545476 -0.12782197 0 0 Z " fill="#D28AEA" transform="translate(84,26)"/>
<path d="M0 0 C2.90712115 5.42662614 3.14158578 10.16572621 3.11352539 16.25683594 C3.11367142 17.08647354 3.11381744 17.91611115 3.1139679 18.77088928 C3.11327212 21.5087446 3.10549539 24.24653159 3.09765625 26.984375 C3.09579088 28.88437869 3.09436754 30.78438286 3.09336853 32.68438721 C3.08955273 37.68208141 3.07973041 42.67974649 3.06866455 47.6774292 C3.05843031 52.77843838 3.05386659 57.87945226 3.04882812 62.98046875 C3.03810732 72.98699195 3.02104212 82.99349355 3 93 C2.67 93 2.34 93 2 93 C1.98969254 91.99188766 1.97938507 90.98377533 1.96876526 89.94511414 C1.87109555 80.45407472 1.76836755 70.96310181 1.66066074 61.47217083 C1.60544824 56.59255425 1.55203085 51.71293167 1.50268555 46.83325195 C1.45501741 42.12590583 1.4026736 37.418633 1.34705925 32.71137428 C1.32664682 30.91362134 1.3079319 29.11584831 1.29092598 27.31805992 C1.26685742 24.80400697 1.23680614 22.29009252 1.20532227 19.77612305 C1.1995668 19.02949905 1.19381134 18.28287506 1.18788147 17.5136261 C1.14361424 14.41287071 0.98809331 11.96427994 0 9 C-0.06740865 7.43881572 -0.08514456 5.8749748 -0.0625 4.3125 C-0.05347656 3.50425781 -0.04445313 2.69601563 -0.03515625 1.86328125 C-0.02355469 1.24839844 -0.01195312 0.63351563 0 0 Z " fill="#614285" transform="translate(371,48)"/>
<path d="M0 0 C1.20557195 2.4111439 0.9699036 3.4197927 0.625 6.0625 C0.30706551 8.54963311 -0.0022505 11.02550562 -0.22265625 13.5234375 C-0.29355469 14.32007813 -0.36445312 15.11671875 -0.4375 15.9375 C-0.52837891 17.03384766 -0.52837891 17.03384766 -0.62109375 18.15234375 C-1 20 -1 20 -3 22 C-3.33 21.34 -3.66 20.68 -4 20 C-4.66 25.61 -5.32 31.22 -6 37 C-6.33 37 -6.66 37 -7 37 C-7.772477 9.64859214 -7.772477 9.64859214 0 0 Z " fill="#B87DD1" transform="translate(8,40)"/>
<path d="M0 0 C0 0.33 0 0.66 0 1 C-0.87736816 1.07516846 -1.75473633 1.15033691 -2.65869141 1.2277832 C-5.93607029 1.5144401 -9.21208055 1.81204141 -12.48779297 2.11694336 C-13.90146398 2.24629571 -15.31553399 2.37136598 -16.72998047 2.49194336 C-18.7717272 2.66676523 -20.8115081 2.85731408 -22.8515625 3.05078125 C-24.07697754 3.16075439 -25.30239258 3.27072754 -26.56494141 3.3840332 C-30.19418291 4.03482043 -32.76340337 5.27767832 -36 7 C-37.27875 7.2475 -38.5575 7.495 -39.875 7.75 C-45.05634432 8.89029585 -48.33200018 12.35151082 -52 16 C-52.66 15.67 -53.32 15.34 -54 15 C-53.18587198 13.9021607 -52.34720236 12.82252213 -51.5 11.75 C-51.0359375 11.14671875 -50.571875 10.5434375 -50.09375 9.921875 C-44.31522654 4.61770794 -37.16214804 3.04863474 -29.625 1.75 C-28.67415527 1.58016602 -27.72331055 1.41033203 -26.74365234 1.23535156 C-17.7913596 -0.24700376 -9.04468533 -0.40198601 0 0 Z " fill="#8D49AF" transform="translate(98,31)"/>
<path d="M0 0 C0.33 0.66 0.66 1.32 1 2 C1.66 2 2.32 2 3 2 C3 2.66 3 3.32 3 4 C3.94875 4.226875 4.8975 4.45375 5.875 4.6875 C9 6 9 6 10.125 8.5625 C10.41375 9.366875 10.7025 10.17125 11 11 C13.04105639 11.88693303 13.04105639 11.88693303 15 12 C14.95875 13.0725 14.9175 14.145 14.875 15.25 C14.72529527 18.80749282 14.72529527 18.80749282 16 20.9375 C17.59534921 24.22790776 17.12077277 27.37681681 17 31 C16.67 31 16.34 31 16 31 C15.85304688 30.39414063 15.70609375 29.78828125 15.5546875 29.1640625 C13.1385618 20.13830557 9.58123279 12.68592459 2 7 C0.8125 4.3125 0.8125 4.3125 0 2 C-0.66 1.67 -1.32 1.34 -2 1 C-1.34 0.67 -0.68 0.34 0 0 Z " fill="#4C3571" transform="translate(270,165)"/>
<path d="M0 0 C0.66 0.33 1.32 0.66 2 1 C2.54748011 5.47108753 2.27543508 8.25504243 -0.4375 11.8125 C-4.04266081 15.631744 -7.8846006 16.54426442 -13 17 C-14.32 17 -15.64 17 -17 17 C-16.34 15.68 -15.68 14.36 -15 13 C-14.01 13.33 -13.02 13.66 -12 14 C-10.22656019 12.93748229 -10.22656019 12.93748229 -8.5625 11.3125 C-7.95277344 10.75433594 -7.34304687 10.19617188 -6.71484375 9.62109375 C-6.14894531 9.08613281 -5.58304688 8.55117187 -5 8 C-4.21625 7.29875 -3.4325 6.5975 -2.625 5.875 C-0.8999804 3.88459277 -0.3688582 2.58200742 0 0 Z " fill="#393460" transform="translate(259,196)"/>
<path d="M0 0 C12.35072146 -0.47300635 23.93311901 1.51618125 33.87109375 9.50390625 C35.25 10.875 35.25 10.875 37 13 C35.88625 12.649375 34.7725 12.29875 33.625 11.9375 C30.19735524 10.62760669 30.19735524 10.62760669 28 12 C27.34 10.68 26.68 9.36 26 8 C24.02 8 22.04 8 20 8 C20 7.34 20 6.68 20 6 C19.34 6 18.68 6 18 6 C18 5.34 18 4.68 18 4 C16.4840625 4.061875 16.4840625 4.061875 14.9375 4.125 C9.39618164 3.94908513 4.8831749 2.53201661 0 0 Z " fill="#B56CD7" transform="translate(315,5)"/>
<path d="M0 0 C1.98 0 3.96 0 6 0 C6 1.32 6 2.64 6 4 C11.61 4 17.22 4 23 4 C18.18067074 7.21288617 13.82158835 7.23410658 8.125 7.3125 C7.08279297 7.35600586 7.08279297 7.35600586 6.01953125 7.40039062 C0.8426876 7.46376065 -2.03136045 6.27079009 -6 3 C-6.33 2.34 -6.66 1.68 -7 1 C-4.69 1 -2.38 1 0 1 C0 0.67 0 0.34 0 0 Z " fill="#60537E" transform="translate(228,208)"/>
<path d="M0 0 C1.94218842 4.85547105 -0.43704872 9.31114616 -2 14 C-3.66279327 15.0064275 -5.32983484 16.00585407 -7 17 C-7.495 17.70125 -7.99 18.4025 -8.5 19.125 C-10 21 -10 21 -12.625 21.8125 C-13.800625 21.9053125 -13.800625 21.9053125 -15 22 C-15.33 21.67 -15.66 21.34 -16 21 C-17.67542976 21.28604898 -19.34385343 21.61781233 -21 22 C-19.64505934 19.29011868 -18.28910052 19.23547521 -15.5 18.125 C-8.67146461 14.86302338 -4.92223863 9.27200802 -1 3 C-0.67 2.01 -0.34 1.02 0 0 Z " fill="#5C5482" transform="translate(282,210)"/>
<path d="M0 0 C0 0.33 0 0.66 0 1 C-26.07 0.67 -52.14 0.34 -79 0 C-79 -0.33 -79 -0.66 -79 -1 C-70.77634148 -1.13103501 -62.55267376 -1.26147027 -54.3289938 -1.39115143 C-50.50993322 -1.4513937 -46.69087607 -1.5118383 -42.87182617 -1.57275391 C-39.18248804 -1.63159296 -35.49314168 -1.68988929 -31.80378914 -1.74781799 C-30.40007283 -1.7699523 -28.99635954 -1.79227828 -27.59264946 -1.81480408 C-25.61833375 -1.846453 -23.6440059 -1.87734151 -21.66967773 -1.90820312 C-20.54826889 -1.92596802 -19.42686005 -1.94373291 -18.27146912 -1.96203613 C-11.68759181 -2.03843895 -6.31842423 -1.77359277 0 0 Z " fill="#B965D6" transform="translate(308,28)"/>
<path d="M0 0 C0.99 0.33 1.98 0.66 3 1 C2.64878573 5.09749981 1.45674726 6.63848576 -1.53125 9.33984375 C-4.19914029 12.35541123 -5.84019721 16.01030539 -7.66796875 19.57421875 C-9 22 -9 22 -11 24 C-11.33 23.01 -11.66 22.02 -12 21 C-11.34 21 -10.68 21 -10 21 C-10.0825 20.236875 -10.165 19.47375 -10.25 18.6875 C-10 16 -10 16 -8 14.1875 C-7.34 13.795625 -6.68 13.40375 -6 13 C-6.268125 12.29875 -6.53625 11.5975 -6.8125 10.875 C-7.02675956 7.58968673 -6.67857471 7.13850133 -4.6875 4.6875 C-3.800625 3.800625 -2.91375 2.91375 -2 2 C-1.34 2 -0.68 2 0 2 C0 1.34 0 0.68 0 0 Z " fill="#533474" transform="translate(205,112)"/>
<path d="M0 0 C0.66 0.33 1.32 0.66 2 1 C1.20335937 1.76183594 1.20335937 1.76183594 0.390625 2.5390625 C-3.65566607 6.48198117 -7.00195807 10.22534063 -10 15 C-11 16 -12 17 -13 18 C-14.2370831 20.18308783 -15.12382595 22.33278225 -16 24.6875 C-17 27 -17 27 -19 28 C-18.12508937 19.76869795 -15.30292698 13.38410627 -10 7 C-7.96478682 5.37182946 -6.00670573 4.10368766 -3.69921875 2.90234375 C-1.81039731 2.00564731 -1.81039731 2.00564731 0 0 Z " fill="#CE86E7" transform="translate(27,17)"/>
<path d="M0 0 C8.93824669 -0.32177688 16.56247415 -0.33530434 25 3 C25 3.66 25 4.32 25 5 C26.65 5 28.3 5 30 5 C30.33 5.99 30.66 6.98 31 8 C29.41532272 7.71572583 27.8322943 7.42225182 26.25 7.125 C25.36828125 6.96257813 24.4865625 6.80015625 23.578125 6.6328125 C21 6 21 6 19.0078125 4.9609375 C16.49169949 3.75672777 14.40226227 3.65558892 11.625 3.5 C7.4573771 3.19314691 3.90620224 2.5835955 0 1 C0 0.67 0 0.34 0 0 Z " fill="#A853C8" transform="translate(295,29)"/>
<path d="M0 0 C-0.33 0.99 -0.66 1.98 -1 3 C-10.40361826 6.3086805 -20.27163549 5.18175361 -30 4 C-30 3.34 -30 2.68 -30 2 C-28.77023438 1.93941406 -27.54046875 1.87882813 -26.2734375 1.81640625 C-24.64061573 1.73194995 -23.00780373 1.64730453 -21.375 1.5625 C-20.56675781 1.52318359 -19.75851563 1.48386719 -18.92578125 1.44335938 C-12.56344575 1.10713839 -6.37108806 -0.15169257 0 0 Z " fill="#41376E" transform="translate(258,235)"/>
<path d="M0 0 C0.66 0.33 1.32 0.66 2 1 C3.71294908 6.80499409 4.20554919 11.63177135 3.625 17.6875 C3.55539063 18.47511719 3.48578125 19.26273438 3.4140625 20.07421875 C3.27742187 20.70972656 3.14078125 21.34523438 3 22 C2.34 22.33 1.68 22.66 1 23 C-0.87186032 17.56303166 -1.14613573 13.25851354 -0.625 7.5625 C-0.56828125 6.83095703 -0.5115625 6.09941406 -0.453125 5.34570312 C-0.3132963 3.56288714 -0.15824062 1.78127618 0 0 Z " fill="#9A54BA" transform="translate(3,59)"/>
<path d="M0 0 C0.6875 1.6875 0.6875 1.6875 1 4 C0.319375 4.9590625 0.319375 4.9590625 -0.375 5.9375 C-2.80378103 10.51481809 -3.09026032 15.21148568 -3.6875 20.3125 C-3.81705078 21.33923828 -3.94660156 22.36597656 -4.08007812 23.42382812 C-4.39708272 25.948124 -4.70335188 28.47324478 -5 31 C-5.33 31 -5.66 31 -6 31 C-6.54076819 8.46799191 -6.54076819 8.46799191 -1 1 C-0.67 0.67 -0.34 0.34 0 0 Z " fill="#833FA3" transform="translate(37,57)"/>
<path d="M0 0 C0.46921875 0.48082031 0.9384375 0.96164063 1.421875 1.45703125 C5.23500217 3.73913009 8.88039556 3.56801863 13.25 3.6875 C14.51070312 3.73874023 14.51070312 3.73874023 15.796875 3.79101562 C17.86412204 3.87323568 19.93203874 3.93830157 22 4 C21.01 4.33 20.02 4.66 19 5 C19 5.66 19 6.32 19 7 C17.56465159 7.2226746 16.12654475 7.42761906 14.6875 7.625 C13.88699219 7.74101562 13.08648437 7.85703125 12.26171875 7.9765625 C10 8 10 8 7 6 C6.67 6.33 6.34 6.66 6 7 C4.33382885 7.04063832 2.66611905 7.042721 1 7 C0.67 4.69 0.34 2.38 0 0 Z " fill="#3F366C" transform="translate(119,232)"/>
<path d="M0 0 C1.05767578 0.21462891 1.05767578 0.21462891 2.13671875 0.43359375 C5.02411601 1.00477056 7.91609386 1.53905311 10.8125 2.0625 C11.78832031 2.23910156 12.76414063 2.41570312 13.76953125 2.59765625 C14.50558594 2.73042969 15.24164063 2.86320313 16 3 C16 3.66 16 4.32 16 5 C22.93 5.33 29.86 5.66 37 6 C37 6.33 37 6.66 37 7 C9.90541425 7.82942609 9.90541425 7.82942609 0 1 C0 0.67 0 0.34 0 0 Z " fill="#A9A1C2" transform="translate(209,230)"/>
<path d="M0 0 C4.19855808 5.1112881 4.20315129 9.53487821 4.25 16 C4.270625 16.7115625 4.29125 17.423125 4.3125 18.15625 C4.33727723 21.47639891 4.22536967 23.62825621 2.484375 26.5 C1.99453125 26.995 1.5046875 27.49 1 28 C1.01160156 27.06800781 1.02320313 26.13601562 1.03515625 25.17578125 C1.09495359 16.727271 0.79517962 8.42038418 0 0 Z " fill="#BBB1CF" transform="translate(281,182)"/>
<path d="M0 0 C0.33 0 0.66 0 1 0 C1.39198867 22.12558294 1.39198867 22.12558294 -3 29 C-4.08117128 25.75648616 -3.89284888 25.11909707 -3 22 C-2.80828263 20.6073863 -2.64265125 19.21099172 -2.5 17.8125 C-2.37625 16.64074219 -2.37625 16.64074219 -2.25 15.4453125 C-2.1675 14.63835937 -2.085 13.83140625 -2 13 C-1.83596798 11.39556179 -1.66938685 9.79138172 -1.5 8.1875 C-1.4278125 7.47980469 -1.355625 6.77210937 -1.28125 6.04296875 C-0.99661547 3.97541518 -0.54302506 2.01371792 0 0 Z " fill="#8D4AAE" transform="translate(30,78)"/>
<path d="M0 0 C0 0.33 0 0.66 0 1 C-1.02770508 1.06731323 -1.02770508 1.06731323 -2.07617188 1.13598633 C-5.21844092 1.34895409 -8.35907495 1.58058286 -11.5 1.8125 C-13.11648437 1.91788086 -13.11648437 1.91788086 -14.765625 2.02539062 C-19.62723793 2.39594039 -23.99125396 2.78681777 -28.53125 4.63671875 C-32.06109748 6.02401241 -32.64703994 6.10036217 -36 5 C-34.68 4.67 -33.36 4.34 -32 4 C-32 3.34 -32 2.68 -32 2 C-21.34595112 -0.42531194 -10.86424851 -0.19323762 0 0 Z " fill="#B871D5" transform="translate(94,29)"/>
<path d="M0 0 C3.48670834 1.1094072 6.77484237 2.26337666 10 4 C10 4.66 10 5.32 10 6 C12.96844435 6.35338623 15.15598218 6.5417682 17.734375 4.88671875 C19.20348819 3.64496832 20.60704814 2.32662082 22 1 C21.34 3.31 20.68 5.62 20 8 C13.54107286 8.40368295 8.93891422 7.5915262 3 5 C3.33 4.34 3.66 3.68 4 3 C2.68 2.34 1.36 1.68 0 1 C0 0.67 0 0.34 0 0 Z " fill="#745D8B" transform="translate(252,132)"/>
<path d="M0 0 C16.15229111 2.06199461 16.15229111 2.06199461 21 5 C22.3125 8.125 22.3125 8.125 23 11 C20.20709996 9.64112262 17.54632272 8.14459334 14.875 6.5625 C10.11731366 3.8867962 5.26834808 2.3528326 0 1 C0 0.67 0 0.34 0 0 Z " fill="#7E6491" transform="translate(253,109)"/>
<path d="M0 0 C3.00056084 -0.08166849 5.9988539 -0.14081551 9 -0.1875 C9.83917969 -0.21263672 10.67835938 -0.23777344 11.54296875 -0.26367188 C17.3941206 -0.33170852 21.682066 0.50419688 27 3 C27.33 3.66 27.66 4.32 28 5 C25.03 4.505 25.03 4.505 22 4 C21.67 4.66 21.34 5.32 21 6 C21 5.34 21 4.68 21 4 C19.35 4 17.7 4 16 4 C16 3.01 16 2.02 16 1 C10.72 1 5.44 1 0 1 C0 0.67 0 0.34 0 0 Z " fill="#5A3D74" transform="translate(229,131)"/>
<path d="M0 0 C0.80050781 0.38091797 0.80050781 0.38091797 1.6171875 0.76953125 C7.29022691 3.39012212 12.97881581 5.34071751 19 7 C19 7.33 19 7.66 19 8 C12.28299653 8.31985731 7.24273068 7.4793824 1 5 C0.67 3.35 0.34 1.7 0 0 Z " fill="#3B3769" transform="translate(39,332)"/>
<path d="M0 0 C0.66 0.33 1.32 0.66 2 1 C-1.4903969 4.65274094 -4.521526 7.588514 -9 10 C-9.928125 10.556875 -10.85625 11.11375 -11.8125 11.6875 C-12.534375 12.120625 -13.25625 12.55375 -14 13 C-14 11.68 -14 10.36 -14 9 C-11.72356662 7.17825893 -9.59685901 5.68948087 -7.125 4.1875 C-6.47402344 3.76791016 -5.82304687 3.34832031 -5.15234375 2.91601562 C-3.47946101 1.86917045 -1.74282016 0.9257426 0 0 Z " fill="#C79CDF" transform="translate(34,10)"/>
<path d="M0 0 C1.5778125 0.2475 1.5778125 0.2475 3.1875 0.5 C6.20468796 0.89569678 8.97093972 1.09178971 12 1 C12.66 2.65 13.32 4.3 14 6 C9.23623816 6.19055047 5.35100024 6.07190488 1 4 C0.125 1.875 0.125 1.875 0 0 Z " fill="#492B72" transform="translate(235,153)"/>
<path d="M0 0 C-2.74861395 1.1492567 -5.49877984 2.29451341 -8.25 3.4375 C-9.02730469 3.76298828 -9.80460937 4.08847656 -10.60546875 4.42382812 C-11.35957031 4.73642578 -12.11367188 5.04902344 -12.890625 5.37109375 C-13.58188477 5.65911865 -14.27314453 5.94714355 -14.98535156 6.24389648 C-16.97191686 6.98946031 -18.93306394 7.52784696 -21 8 C-15.25530652 1.7484218 -8.62416071 -2.44289531 0 0 Z " fill="#CD83E4" transform="translate(62,33)"/>
<path d="M0 0 C1.82421875 0.16015625 1.82421875 0.16015625 4 1 C5.51953125 3.43359375 5.51953125 3.43359375 6.8125 6.4375 C7.25207031 7.42621094 7.69164062 8.41492188 8.14453125 9.43359375 C8.42683594 10.28050781 8.70914062 11.12742187 9 12 C8.67 12.66 8.34 13.32 8 14 C7.01 13.34 6.02 12.68 5 12 C5 10.68 5 9.36 5 8 C3.68 7.67 2.36 7.34 1 7 C0.67 4.69 0.34 2.38 0 0 Z " fill="#854CAB" transform="translate(362,33)"/>
<path d="M0 0 C0.33 0 0.66 0 1 0 C1.06058594 0.83144531 1.12117187 1.66289063 1.18359375 2.51953125 C1.26738281 3.60621094 1.35117187 4.69289063 1.4375 5.8125 C1.51871094 6.89144531 1.59992187 7.97039062 1.68359375 9.08203125 C1.90212461 12.05989905 1.90212461 12.05989905 3 15 C3.12781786 17.67394964 3.04391871 20.32095857 3 23 C2.01 23.33 1.02 23.66 0 24 C0 16.08 0 8.16 0 0 Z " fill="#7C4B9F" transform="translate(2,86)"/>
<path d="M0 0 C1.24380707 2.48761414 0.92578712 3.70611902 0.5625 6.4375 C0.22689969 9.01609988 0 11.39165072 0 14 C-0.639375 14.103125 -1.27875 14.20625 -1.9375 14.3125 C-2.9584375 14.6528125 -2.9584375 14.6528125 -4 15 C-4.33 15.99 -4.66 16.98 -5 18 C-4.55031129 12.11854503 -4.01464919 6.56991247 -2 1 C-1.34 0.67 -0.68 0.34 0 0 Z " fill="#423471" transform="translate(287,200)"/>
<path d="M0 0 C0.845625 0.144375 1.69125 0.28875 2.5625 0.4375 C6.02870212 1.06020775 6.02870212 1.06020775 9.6875 1.25 C13 2 13 2 15 4.3125 C16.05900595 7.1585785 16.12587689 8.23648399 15 11 C15 10.01 15 9.02 15 8 C14.34 8 13.68 8 13 8 C13 7.34 13 6.68 13 6 C10.69 5.67 8.38 5.34 6 5 C6 4.34 6 3.68 6 3 C4.02 2.34 2.04 1.68 0 1 C0 0.67 0 0.34 0 0 Z " fill="#8539A8" transform="translate(320,38)"/>
<path d="M0 0 C-1.0210886 3.67591895 -1.91435217 4.9339798 -5 7.3125 C-8 9 -8 9 -10 9 C-9.75 7.125 -9.75 7.125 -9 5 C-6.9375 3.75 -6.9375 3.75 -5 3 C-5 2.34 -5 1.68 -5 1 C-3 0 -3 0 0 0 Z " fill="#493972" transform="translate(202,198)"/>
<path d="M0 0 C3.05716405 0.42539388 6.02288229 0.3571893 9.10546875 0.29296875 C7.9765625 1.81640625 7.9765625 1.81640625 6.10546875 3.29296875 C3.328125 3.33203125 3.328125 3.33203125 0.16796875 2.91796875 C-3.5019095 2.45411797 -6.35437763 2.11576104 -9.89453125 3.29296875 C-9.89453125 2.63296875 -9.89453125 1.97296875 -9.89453125 1.29296875 C-6.53442113 -1.08710925 -3.94093858 -0.62847989 0 0 Z " fill="#D090E9" transform="translate(117.89453125,1.70703125)"/>
<path d="M0 0 C1.32 0.33 2.64 0.66 4 1 C2.25 4.875 2.25 4.875 0 6 C-0.65555119 8.52733235 -0.65555119 8.52733235 -1 11 C-1.66 11 -2.32 11 -3 11 C-2.67 12.32 -2.34 13.64 -2 15 C-2.66 14.67 -3.32 14.34 -4 14 C-4 11.69 -4 9.38 -4 7 C-3.34 7 -2.68 7 -2 7 C-1.34 4.69 -0.68 2.38 0 0 Z " fill="#4F3073" transform="translate(196,122)"/>
<path d="M0 0 C6.14830711 1.20555041 8.35248219 2.91558124 12 8 C5.25 7.25 5.25 7.25 3 5 C2.34 4.67 1.68 4.34 1 4 C0.375 1.9375 0.375 1.9375 0 0 Z " fill="#9F55C3" transform="translate(346,16)"/>
<path d="M0 0 C0.66 0.33 1.32 0.66 2 1 C1.45730469 1.49628906 0.91460937 1.99257813 0.35546875 2.50390625 C-4.19262473 6.82254636 -6.78650245 10.17500646 -9 16 C-9.99 16.66 -10.98 17.32 -12 18 C-10.32354762 9.84897292 -6.11994647 5.42712235 0 0 Z " fill="#9850B6" transform="translate(46,42)"/>
<path d="M0 0 C4.47070922 1.40508004 6.83678532 3.59346112 10 7 C10.763125 7.763125 11.52625 8.52625 12.3125 9.3125 C12.869375 9.869375 13.42625 10.42625 14 11 C10.21472479 10.48847632 8.55891312 9.79154158 6 7 C5.01 6.67 4.02 6.34 3 6 C2.67 6.66 2.34 7.32 2 8 C1.855625 7.236875 1.71125 6.47375 1.5625 5.6875 C1.0367406 2.91827092 1.0367406 2.91827092 0 0 Z " fill="#635A82" transform="translate(190,216)"/>
<path d="M0 0 C0.66 0.66 1.32 1.32 2 2 C1.67 2.66 1.34 3.32 1 4 C2.98 3.67 4.96 3.34 7 3 C7 3.66 7 4.32 7 5 C7.99 5.33 8.98 5.66 10 6 C10.6875 8.0625 10.6875 8.0625 11 10 C7.5625 9.1875 7.5625 9.1875 4 8 C3.67 7.01 3.34 6.02 3 5 C2.01 5 1.02 5 0 5 C0 3.35 0 1.7 0 0 Z " fill="#492D6F" transform="translate(221,145)"/>
<path d="M0 0 C5 1.66666667 10 3.33333333 15 5 C13.375 6.125 13.375 6.125 11 7 C8.0625 6.25 8.0625 6.25 5 5 C4.05125 4.62875 3.1025 4.2575 2.125 3.875 C1.42375 3.58625 0.7225 3.2975 0 3 C0 2.01 0 1.02 0 0 Z " fill="#40346D" transform="translate(208,231)"/>
<path d="M0 0 C0 0.99 0 1.98 0 3 C1.32 3.33 2.64 3.66 4 4 C4 5.32 4 6.64 4 8 C1.53199953 6.84826645 -0.04783565 5.95216435 -2 4 C-4.06874034 3.3574765 -4.06874034 3.3574765 -6 3 C-6 2.34 -6 1.68 -6 1 C-3 0 -3 0 0 0 Z " fill="#5B4F7C" transform="translate(208,197)"/>
<path d="M0 0 C8.415 1.98 8.415 1.98 17 4 C17 4.33 17 4.66 17 5 C15.41870971 5.22331199 13.83478911 5.42804644 12.25 5.625 C10.92742187 5.79902344 10.92742187 5.79902344 9.578125 5.9765625 C6.77140122 6.00207817 5.36615134 5.44843844 3 4 C3 3.34 3 2.68 3 2 C2.01 1.67 1.02 1.34 0 1 C0 0.67 0 0.34 0 0 Z " fill="#614E7F" transform="translate(219,176)"/>
<path d="M0 0 C0.33 0 0.66 0 1 0 C1 1.65 1 3.3 1 5 C0.34 5 -0.32 5 -1 5 C-1.12117188 5.78246094 -1.24234375 6.56492187 -1.3671875 7.37109375 C-1.53476562 8.38300781 -1.70234375 9.39492187 -1.875 10.4375 C-2.11863281 11.95150391 -2.11863281 11.95150391 -2.3671875 13.49609375 C-2.57601563 14.32238281 -2.78484375 15.14867188 -3 16 C-3.66 16.33 -4.32 16.66 -5 17 C-4.15533981 4.15533981 -4.15533981 4.15533981 0 0 Z " fill="#B766D0" transform="translate(32,57)"/>
<path d="M0 0 C4.95476478 4.79493366 4.95476478 4.79493366 5.09765625 8.6015625 C5.08605469 9.59929687 5.07445312 10.59703125 5.0625 11.625 C5.05347656 12.62789062 5.04445313 13.63078125 5.03515625 14.6640625 C5.02355469 15.43492187 5.01195312 16.20578125 5 17 C4.34 17 3.68 17 3 17 C3.02320313 16.39671875 3.04640625 15.7934375 3.0703125 15.171875 C3.08835937 14.37265625 3.10640625 13.5734375 3.125 12.75 C3.14820313 11.96109375 3.17140625 11.1721875 3.1953125 10.359375 C2.97962391 7.75385683 2.3921178 6.20013023 1 4 C0.34 3.67 -0.32 3.34 -1 3 C-0.67 2.01 -0.34 1.02 0 0 Z " fill="#807997" transform="translate(257,189)"/>
<path d="M0 0 C-0.33 0.33 -0.66 0.66 -1 1 C1.31 1 3.62 1 6 1 C6 1.33 6 1.66 6 2 C2.37 2.66 -1.26 3.32 -5 4 C-5 3.67 -5 3.34 -5 3 C-6.65 2.67 -8.3 2.34 -10 2 C-6.80505194 -1.19494806 -4.22040044 -1.35655728 0 0 Z " fill="#633E7E" transform="translate(224,107)"/>
<path d="M0 0 C0.33 0 0.66 0 1 0 C2.80959952 6.78599819 3.47497713 11.19381289 1 18 C0.67 18 0.34 18 0 18 C0 12.06 0 6.12 0 0 Z " fill="#AB4FCC" transform="translate(4,60)"/>
<path d="M0 0 C10.55808656 -0.18451025 10.55808656 -0.18451025 15 1 C14.67 1.99 14.34 2.98 14 4 C9.23649415 3.28547412 4.65798604 2.20465156 0 1 C0 0.67 0 0.34 0 0 Z " fill="#B95FDA" transform="translate(315,5)"/>
<path d="M0 0 C0.33 0 0.66 0 1 0 C0.03644647 10.55808656 0.03644647 10.55808656 -1 15 C-1.99 14.67 -2.98 14.34 -4 14 C-4 13.34 -4 12.68 -4 12 C-3.34 12 -2.68 12 -2 12 C-2.226875 11.319375 -2.45375 10.63875 -2.6875 9.9375 C-3.12290176 5.84472345 -1.79836785 3.66867041 0 0 Z " fill="#A85BC3" transform="translate(29,70)"/>
<path d="M0 0 C-0.25 1.875 -0.25 1.875 -1 4 C-4.17973464 6.35535899 -7.15124621 6.17494335 -11 6 C-10.34 5.67 -9.68 5.34 -9 5 C-9 4.34 -9 3.68 -9 3 C-7.68 3.33 -6.36 3.66 -5 4 C-4.67 3.01 -4.34 2.02 -4 1 C-2 0 -2 0 0 0 Z " fill="#353362" transform="translate(341,331)"/>
<path d="M0 0 C1.30045636 2.60091273 0.78732009 3.7055536 0.125 6.5 C-0.05804688 7.2940625 -0.24109375 8.088125 -0.4296875 8.90625 C-1 11 -1 11 -2 13 C-2.66 13 -3.32 13 -4 13 C-4 12.01 -4 11.02 -4 10 C-4.66 9.67 -5.32 9.34 -6 9 C-5.38125 8.62875 -4.7625 8.2575 -4.125 7.875 C-1.4489404 5.51377094 -0.9063156 3.39868348 0 0 Z " fill="#2F2F60" transform="translate(369,295)"/>
<path d="M0 0 C1.98 0 3.96 0 6 0 C6 0.66 6 1.32 6 2 C8.31 2 10.62 2 13 2 C13 3.65 13 5.3 13 7 C12.67 6.34 12.34 5.68 12 5 C9.45615533 4.16166796 9.45615533 4.16166796 6.5 3.5 C3.46875 2.78125 3.46875 2.78125 1 2 C0.67 1.34 0.34 0.68 0 0 Z " fill="#463270" transform="translate(236,182)"/>
<path d="M0 0 C1.32 0.33 2.64 0.66 4 1 C4 1.66 4 2.32 4 3 C5.65 3.33 7.3 3.66 9 4 C9.33 4.99 9.66 5.98 10 7 C7.36 6.67 4.72 6.34 2 6 C2 4.68 2 3.36 2 2 C1.34 1.34 0.68 0.68 0 0 Z " fill="#4A356C" transform="translate(205,170)"/>
<path d="M0 0 C0.66 0.33 1.32 0.66 2 1 C0.8125 3.4375 0.8125 3.4375 -1 6 C-3.6875 6.8125 -3.6875 6.8125 -6 7 C-4.60667426 3.63279613 -3.0210714 2.0140476 0 0 Z " fill="#333062" transform="translate(357,317)"/>
<path d="M0 0 C0.66 0.66 1.32 1.32 2 2 C1.67 3.03125 1.34 4.0625 1 5.125 C0.23438469 7.74616909 0 9.51115099 0 12.3125 C0 13.199375 0 14.08625 0 15 C-0.66 15.66 -1.32 16.32 -2 17 C-2.11116338 11.55299453 -2.00581962 6.36437132 -1 1 C-0.67 0.67 -0.34 0.34 0 0 Z " fill="#BC5FD6" transform="translate(7,45)"/>
<path d="M0 0 C0.69867188 0.144375 1.39734375 0.28875 2.1171875 0.4375 C3.02726562 0.623125 3.93734375 0.80875 4.875 1 C5.77992188 1.185625 6.68484375 1.37125 7.6171875 1.5625 C9.92407903 2.06019595 9.92407903 2.06019595 12 2 C12 2.99 12 3.98 12 5 C3.07692308 3.79881657 3.07692308 3.79881657 1 3 C0.67 2.01 0.34 1.02 0 0 Z " fill="#9343B6" transform="translate(319,35)"/>
<path d="M0 0 C4.29 0.66 8.58 1.32 13 2 C13.33 2.99 13.66 3.98 14 5 C12.41439607 4.74279326 10.83154076 4.46861201 9.25 4.1875 C8.36828125 4.03667969 7.4865625 3.88585938 6.578125 3.73046875 C4 3 4 3 0 0 Z " fill="#A04BC0" transform="translate(312,32)"/>
<path d="M0 0 C0 3.44360632 -0.79591532 4.74795392 -2.5 7.6875 C-2.9640625 8.49574219 -3.428125 9.30398437 -3.90625 10.13671875 C-4.44765625 11.05904297 -4.44765625 11.05904297 -5 12 C-5.66 11.67 -6.32 11.34 -7 11 C-7 10.34 -7 9.68 -7 9 C-6.34 9 -5.68 9 -5 9 C-5.103125 8.2575 -5.20625 7.515 -5.3125 6.75 C-5 4 -5 4 -2.5 1.6875 C-1.2625 0.8521875 -1.2625 0.8521875 0 0 Z " fill="#705A88" transform="translate(200,124)"/>
<path d="M0 0 C2.83597257 5.57971839 3.10375377 9.77477369 3 16 C0.92587831 11.99003141 -0.12820363 8.84605023 -0.0625 4.3125 C-0.05347656 3.50425781 -0.04445313 2.69601563 -0.03515625 1.86328125 C-0.02355469 1.24839844 -0.01195312 0.63351563 0 0 Z " fill="#8762AD" transform="translate(371,48)"/>
<path d="M0 0 C0 3.92896395 -1.00299863 7.19893228 -2 11 C-2.66 11 -3.32 11 -4 11 C-4.33 12.32 -4.66 13.64 -5 15 C-5.125 9.25 -5.125 9.25 -4 7 C-3.34 7 -2.68 7 -2 7 C-2.061875 5.824375 -2.061875 5.824375 -2.125 4.625 C-2 2 -2 2 0 0 Z " fill="#A458BF" transform="translate(35,55)"/>
<path d="M0 0 C-1.485 1.98 -1.485 1.98 -3 4 C-5.97 3.505 -5.97 3.505 -9 3 C-9 2.34 -9 1.68 -9 1 C-5.8035914 -0.06546953 -3.34252724 -0.07427838 0 0 Z " fill="#E6D8EF" transform="translate(271,135)"/>
<path d="M0 0 C-0.33 0.99 -0.66 1.98 -1 3 C-3.94389782 4.17755913 -4.89953913 4.03348696 -8 3 C-8 2.34 -8 1.68 -8 1 C-5.29120665 -0.35439668 -2.99066732 -0.06501451 0 0 Z " fill="#41366B" transform="translate(258,235)"/>
<path d="M0 0 C3.63 0 7.26 0 11 0 C11 0.66 11 1.32 11 2 C6.545 2.495 6.545 2.495 2 3 C1.34 2.01 0.68 1.02 0 0 Z " fill="#382E69" transform="translate(127,237)"/>
<path d="M0 0 C0.99 0.33 1.98 0.66 3 1 C3.99 0.67 4.98 0.34 6 0 C5.67 0.99 5.34 1.98 5 3 C2.69 3.33 0.38 3.66 -2 4 C-1.34 2.68 -0.68 1.36 0 0 Z " fill="#402D6A" transform="translate(244,209)"/>
<path d="M0 0 C0.33 0.99 0.66 1.98 1 3 C-0.4800841 2.88637738 -1.95910074 2.75877092 -3.4375 2.625 C-4.26121094 2.55539063 -5.08492187 2.48578125 -5.93359375 2.4140625 C-6.61550781 2.27742187 -7.29742187 2.14078125 -8 2 C-8.33 1.34 -8.66 0.68 -9 0 C-3.375 -1.125 -3.375 -1.125 0 0 Z " fill="#4F3A6C" transform="translate(245,156)"/>
<path d="M0 0 C0.66 0.33 1.32 0.66 2 1 C1.3503125 1.5878125 1.3503125 1.5878125 0.6875 2.1875 C-1.14560261 4.02238902 -1.14560261 4.02238902 -2.5625 6.6875 C-3.2740625 7.8321875 -3.2740625 7.8321875 -4 9 C-4.66 9 -5.32 9 -6 9 C-5.52797514 4.75177626 -3.03344482 2.80010291 0 0 Z " fill="#D3CADE" transform="translate(207,117)"/>
<path d="M0 0 C1.2380014 3.57644848 0.74926071 6.33694766 0 10 C-1.32 9.67 -2.64 9.34 -4 9 C-2.80100302 5.9168649 -1.52299523 2.93720508 0 0 Z " fill="#645C8A" transform="translate(282,210)"/>
<path d="M0 0 C1.65 1.32 3.3 2.64 5 4 C4.625 5.9375 4.625 5.9375 4 8 C3.01 8.495 3.01 8.495 2 9 C1.34 6.03 0.68 3.06 0 0 Z " fill="#E7D7F0" transform="translate(275,120)"/>
<path d="M0 0 C4.8 3.32307692 4.8 3.32307692 5.8125 6.75 C5.874375 7.4925 5.93625 8.235 6 9 C3.525 8.01 3.525 8.01 1 7 C1.66 6.67 2.32 6.34 3 6 C2.2575 5.071875 2.2575 5.071875 1.5 4.125 C0 2 0 2 0 0 Z " fill="#675586" transform="translate(198,160)"/>
<path d="M0 0 C8.57142857 -0.28571429 8.57142857 -0.28571429 12 2 C7.31034294 3.11658501 4.46236469 2.80619523 0 1 C0 0.67 0 0.34 0 0 Z " fill="#645382" transform="translate(226,154)"/>
<path d="M0 0 C0.33 0.99 0.66 1.98 1 3 C0.01 3.33 -0.98 3.66 -2 4 C-2.71727778 5.64551962 -3.38325228 7.31422289 -4 9 C-4.66 9.66 -5.32 10.32 -6 11 C-5.55530671 5.96014269 -3.28656638 3.62365012 0 0 Z " fill="#BE9BD5" transform="translate(19,20)"/>
<path d="M0 0 C1.98 0 3.96 0 6 0 C6 1.32 6 2.64 6 4 C3.69 3.67 1.38 3.34 -1 3 C-0.67 2.01 -0.34 1.02 0 0 Z " fill="#442D7C" transform="translate(228,208)"/>
<path d="M0 0 C0.99 0.33 1.98 0.66 3 1 C2.67 1.66 2.34 2.32 2 3 C2.99 3.33 3.98 3.66 5 4 C4.01 4.99 3.02 5.98 2 7 C0 4 0 4 0 0 Z " fill="#412D6C" transform="translate(254,189)"/>
<path d="M0 0 C-1.29299694 2.88437779 -2.65941363 4.87219421 -5 7 C-5.33 6.01 -5.66 5.02 -6 4 C-2.25 0 -2.25 0 0 0 Z " fill="#4C2E6D" transform="translate(278,132)"/>
<path d="M0 0 C0.66 0 1.32 0 2 0 C2.33 2.31 2.66 4.62 3 7 C2.01 7.33 1.02 7.66 0 8 C0 5.36 0 2.72 0 0 Z " fill="#734998" transform="translate(2,102)"/>
<path d="M0 0 C0.66 0.33 1.32 0.66 2 1 C2 3.97 2 6.94 2 10 C1.67 10 1.34 10 1 10 C0.67 8.35 0.34 6.7 0 5 C-0.66 5 -1.32 5 -2 5 C-2 4.01 -2 3.02 -2 2 C-1.34 2 -0.68 2 0 2 C0 1.34 0 0.68 0 0 Z " fill="#6C3192" transform="translate(369,46)"/>
<path d="M0 0 C0 3.6461404 -0.08577934 5.97607286 -2.5625 8.75 C-3.2740625 9.36875 -3.2740625 9.36875 -4 10 C-3.5205537 5.78087253 -2.83374881 3.20336822 0 0 Z " fill="#C770E0" transform="translate(12,35)"/>
<path d="M0 0 C0.33 0.99 0.66 1.98 1 3 C-1.97 5.475 -1.97 5.475 -5 8 C-3.8141763 4.62496331 -2.72426311 2.35277269 0 0 Z " fill="#C78AE0" transform="translate(19,23)"/>
<path d="M0 0 C2.475 0.99 2.475 0.99 5 2 C5 2.66 5 3.32 5 4 C6.32 4.33 7.64 4.66 9 5 C8.67 5.66 8.34 6.32 8 7 C2.25 3.375 2.25 3.375 0 0 Z " fill="#3D3265" transform="translate(194,222)"/>
<path d="M0 0 C-3.44175522 2.14699969 -5.7720292 2.09856795 -9.75 1.625 C-10.73484375 1.51414063 -11.7196875 1.40328125 -12.734375 1.2890625 C-13.48203125 1.19367188 -14.2296875 1.09828125 -15 1 C-15 0.67 -15 0.34 -15 0 C-13.25093341 -0.19601608 -11.50068154 -0.38147403 -9.75 -0.5625 C-8.77546875 -0.66691406 -7.8009375 -0.77132812 -6.796875 -0.87890625 C-4.2368648 -0.98974468 -2.41851841 -0.77738092 0 0 Z " fill="#DDD4EA" transform="translate(248,215)"/>
<path d="M0 0 C0.66 0.33 1.32 0.66 2 1 C1.67 1.99 1.34 2.98 1 4 C-2.5625 5.1875 -2.5625 5.1875 -6 6 C-4 4 -2 2 0 0 Z " fill="#C5BEDA" transform="translate(198,203)"/>
<path d="M0 0 C0.99 0 1.98 0 3 0 C3.33 1.98 3.66 3.96 4 6 C2.35 5.01 0.7 4.02 -1 3 C-0.67 2.01 -0.34 1.02 0 0 Z " fill="#422E6A" transform="translate(212,201)"/>
<path d="M0 0 C1.32 0 2.64 0 4 0 C4.66 1.98 5.32 3.96 6 6 C4 5 2 4 0 3 C0 2.01 0 1.02 0 0 Z " fill="#735587" transform="translate(270,114)"/>
<path d="M0 0 C1.32 0 2.64 0 4 0 C4.33 0.99 4.66 1.98 5 3 C4.34 3.66 3.68 4.32 3 5 C2.01 4.67 1.02 4.34 0 4 C0 2.68 0 1.36 0 0 Z " fill="#923BB8" transform="translate(354,24)"/>
<path d="M0 0 C0.33 1.32 0.66 2.64 1 4 C1.66 4 2.32 4 3 4 C3.66 5.32 4.32 6.64 5 8 C2.5625 7.25 2.5625 7.25 0 6 C-0.875 4 -0.875 4 -1 2 C-0.67 1.34 -0.34 0.68 0 0 Z " fill="#413C70" transform="translate(24,321)"/>
<path d="M0 0 C0.33 0.66 0.66 1.32 1 2 C1.66 2.33 2.32 2.66 3 3 C-1.75 7 -1.75 7 -4 7 C-4 6.34 -4 5.68 -4 5 C-3.01 5 -2.02 5 -1 5 C-0.67 3.35 -0.34 1.7 0 0 Z " fill="#3F3960" transform="translate(255,205)"/>
<path d="M0 0 C2 2 2 2 2.125 4.625 C2.08375 5.40875 2.0425 6.1925 2 7 C0.02 7.99 0.02 7.99 -2 9 C-1.34 6.03 -0.68 3.06 0 0 Z " fill="#522F75" transform="translate(281,121)"/>
<path d="M0 0 C6.52307692 -0.36923077 6.52307692 -0.36923077 8.9375 1.5 C9.288125 1.995 9.63875 2.49 10 3 C3.375 2.25 3.375 2.25 0 0 Z " fill="#4F2E6B" transform="translate(254,108)"/>
</svg>
